G75*
%MOIN*%
%OFA0B0*%
%FSLAX25Y25*%
%IPPOS*%
%LPD*%
%AMOC8*
5,1,8,0,0,1.08239X$1,22.5*
%
%ADD10C,0.00000*%
%ADD11C,0.00800*%
%ADD12C,0.06600*%
%ADD13OC8,0.06600*%
%ADD14C,0.06000*%
%ADD15OC8,0.05200*%
%ADD16C,0.08500*%
%ADD17C,0.01600*%
%ADD18C,0.00900*%
%ADD19C,0.01400*%
%ADD20C,0.01200*%
%ADD21C,0.00600*%
%ADD22C,0.02978*%
D10*
X0007100Y0001000D02*
X0007100Y0175961D01*
X0270801Y0175961D01*
X0270801Y0001000D01*
X0007100Y0001000D01*
X0015131Y0011000D02*
X0015133Y0011088D01*
X0015139Y0011176D01*
X0015149Y0011264D01*
X0015163Y0011352D01*
X0015180Y0011438D01*
X0015202Y0011524D01*
X0015227Y0011608D01*
X0015257Y0011692D01*
X0015289Y0011774D01*
X0015326Y0011854D01*
X0015366Y0011933D01*
X0015410Y0012010D01*
X0015457Y0012085D01*
X0015507Y0012157D01*
X0015561Y0012228D01*
X0015617Y0012295D01*
X0015677Y0012361D01*
X0015739Y0012423D01*
X0015805Y0012483D01*
X0015872Y0012539D01*
X0015943Y0012593D01*
X0016015Y0012643D01*
X0016090Y0012690D01*
X0016167Y0012734D01*
X0016246Y0012774D01*
X0016326Y0012811D01*
X0016408Y0012843D01*
X0016492Y0012873D01*
X0016576Y0012898D01*
X0016662Y0012920D01*
X0016748Y0012937D01*
X0016836Y0012951D01*
X0016924Y0012961D01*
X0017012Y0012967D01*
X0017100Y0012969D01*
X0017188Y0012967D01*
X0017276Y0012961D01*
X0017364Y0012951D01*
X0017452Y0012937D01*
X0017538Y0012920D01*
X0017624Y0012898D01*
X0017708Y0012873D01*
X0017792Y0012843D01*
X0017874Y0012811D01*
X0017954Y0012774D01*
X0018033Y0012734D01*
X0018110Y0012690D01*
X0018185Y0012643D01*
X0018257Y0012593D01*
X0018328Y0012539D01*
X0018395Y0012483D01*
X0018461Y0012423D01*
X0018523Y0012361D01*
X0018583Y0012295D01*
X0018639Y0012228D01*
X0018693Y0012157D01*
X0018743Y0012085D01*
X0018790Y0012010D01*
X0018834Y0011933D01*
X0018874Y0011854D01*
X0018911Y0011774D01*
X0018943Y0011692D01*
X0018973Y0011608D01*
X0018998Y0011524D01*
X0019020Y0011438D01*
X0019037Y0011352D01*
X0019051Y0011264D01*
X0019061Y0011176D01*
X0019067Y0011088D01*
X0019069Y0011000D01*
X0019067Y0010912D01*
X0019061Y0010824D01*
X0019051Y0010736D01*
X0019037Y0010648D01*
X0019020Y0010562D01*
X0018998Y0010476D01*
X0018973Y0010392D01*
X0018943Y0010308D01*
X0018911Y0010226D01*
X0018874Y0010146D01*
X0018834Y0010067D01*
X0018790Y0009990D01*
X0018743Y0009915D01*
X0018693Y0009843D01*
X0018639Y0009772D01*
X0018583Y0009705D01*
X0018523Y0009639D01*
X0018461Y0009577D01*
X0018395Y0009517D01*
X0018328Y0009461D01*
X0018257Y0009407D01*
X0018185Y0009357D01*
X0018110Y0009310D01*
X0018033Y0009266D01*
X0017954Y0009226D01*
X0017874Y0009189D01*
X0017792Y0009157D01*
X0017708Y0009127D01*
X0017624Y0009102D01*
X0017538Y0009080D01*
X0017452Y0009063D01*
X0017364Y0009049D01*
X0017276Y0009039D01*
X0017188Y0009033D01*
X0017100Y0009031D01*
X0017012Y0009033D01*
X0016924Y0009039D01*
X0016836Y0009049D01*
X0016748Y0009063D01*
X0016662Y0009080D01*
X0016576Y0009102D01*
X0016492Y0009127D01*
X0016408Y0009157D01*
X0016326Y0009189D01*
X0016246Y0009226D01*
X0016167Y0009266D01*
X0016090Y0009310D01*
X0016015Y0009357D01*
X0015943Y0009407D01*
X0015872Y0009461D01*
X0015805Y0009517D01*
X0015739Y0009577D01*
X0015677Y0009639D01*
X0015617Y0009705D01*
X0015561Y0009772D01*
X0015507Y0009843D01*
X0015457Y0009915D01*
X0015410Y0009990D01*
X0015366Y0010067D01*
X0015326Y0010146D01*
X0015289Y0010226D01*
X0015257Y0010308D01*
X0015227Y0010392D01*
X0015202Y0010476D01*
X0015180Y0010562D01*
X0015163Y0010648D01*
X0015149Y0010736D01*
X0015139Y0010824D01*
X0015133Y0010912D01*
X0015131Y0011000D01*
X0196411Y0091000D02*
X0196413Y0091052D01*
X0196419Y0091104D01*
X0196429Y0091155D01*
X0196442Y0091205D01*
X0196460Y0091255D01*
X0196481Y0091302D01*
X0196505Y0091348D01*
X0196534Y0091392D01*
X0196565Y0091434D01*
X0196599Y0091473D01*
X0196636Y0091510D01*
X0196676Y0091543D01*
X0196719Y0091574D01*
X0196763Y0091601D01*
X0196809Y0091625D01*
X0196858Y0091645D01*
X0196907Y0091661D01*
X0196958Y0091674D01*
X0197009Y0091683D01*
X0197061Y0091688D01*
X0197113Y0091689D01*
X0197165Y0091686D01*
X0197217Y0091679D01*
X0197268Y0091668D01*
X0197318Y0091654D01*
X0197367Y0091635D01*
X0197414Y0091613D01*
X0197459Y0091588D01*
X0197503Y0091559D01*
X0197544Y0091527D01*
X0197583Y0091492D01*
X0197618Y0091454D01*
X0197651Y0091413D01*
X0197681Y0091371D01*
X0197707Y0091326D01*
X0197730Y0091279D01*
X0197749Y0091230D01*
X0197765Y0091180D01*
X0197777Y0091130D01*
X0197785Y0091078D01*
X0197789Y0091026D01*
X0197789Y0090974D01*
X0197785Y0090922D01*
X0197777Y0090870D01*
X0197765Y0090820D01*
X0197749Y0090770D01*
X0197730Y0090721D01*
X0197707Y0090674D01*
X0197681Y0090629D01*
X0197651Y0090587D01*
X0197618Y0090546D01*
X0197583Y0090508D01*
X0197544Y0090473D01*
X0197503Y0090441D01*
X0197459Y0090412D01*
X0197414Y0090387D01*
X0197367Y0090365D01*
X0197318Y0090346D01*
X0197268Y0090332D01*
X0197217Y0090321D01*
X0197165Y0090314D01*
X0197113Y0090311D01*
X0197061Y0090312D01*
X0197009Y0090317D01*
X0196958Y0090326D01*
X0196907Y0090339D01*
X0196858Y0090355D01*
X0196809Y0090375D01*
X0196763Y0090399D01*
X0196719Y0090426D01*
X0196676Y0090457D01*
X0196636Y0090490D01*
X0196599Y0090527D01*
X0196565Y0090566D01*
X0196534Y0090608D01*
X0196505Y0090652D01*
X0196481Y0090698D01*
X0196460Y0090745D01*
X0196442Y0090795D01*
X0196429Y0090845D01*
X0196419Y0090896D01*
X0196413Y0090948D01*
X0196411Y0091000D01*
X0200131Y0021000D02*
X0200133Y0021088D01*
X0200139Y0021176D01*
X0200149Y0021264D01*
X0200163Y0021352D01*
X0200180Y0021438D01*
X0200202Y0021524D01*
X0200227Y0021608D01*
X0200257Y0021692D01*
X0200289Y0021774D01*
X0200326Y0021854D01*
X0200366Y0021933D01*
X0200410Y0022010D01*
X0200457Y0022085D01*
X0200507Y0022157D01*
X0200561Y0022228D01*
X0200617Y0022295D01*
X0200677Y0022361D01*
X0200739Y0022423D01*
X0200805Y0022483D01*
X0200872Y0022539D01*
X0200943Y0022593D01*
X0201015Y0022643D01*
X0201090Y0022690D01*
X0201167Y0022734D01*
X0201246Y0022774D01*
X0201326Y0022811D01*
X0201408Y0022843D01*
X0201492Y0022873D01*
X0201576Y0022898D01*
X0201662Y0022920D01*
X0201748Y0022937D01*
X0201836Y0022951D01*
X0201924Y0022961D01*
X0202012Y0022967D01*
X0202100Y0022969D01*
X0202188Y0022967D01*
X0202276Y0022961D01*
X0202364Y0022951D01*
X0202452Y0022937D01*
X0202538Y0022920D01*
X0202624Y0022898D01*
X0202708Y0022873D01*
X0202792Y0022843D01*
X0202874Y0022811D01*
X0202954Y0022774D01*
X0203033Y0022734D01*
X0203110Y0022690D01*
X0203185Y0022643D01*
X0203257Y0022593D01*
X0203328Y0022539D01*
X0203395Y0022483D01*
X0203461Y0022423D01*
X0203523Y0022361D01*
X0203583Y0022295D01*
X0203639Y0022228D01*
X0203693Y0022157D01*
X0203743Y0022085D01*
X0203790Y0022010D01*
X0203834Y0021933D01*
X0203874Y0021854D01*
X0203911Y0021774D01*
X0203943Y0021692D01*
X0203973Y0021608D01*
X0203998Y0021524D01*
X0204020Y0021438D01*
X0204037Y0021352D01*
X0204051Y0021264D01*
X0204061Y0021176D01*
X0204067Y0021088D01*
X0204069Y0021000D01*
X0204067Y0020912D01*
X0204061Y0020824D01*
X0204051Y0020736D01*
X0204037Y0020648D01*
X0204020Y0020562D01*
X0203998Y0020476D01*
X0203973Y0020392D01*
X0203943Y0020308D01*
X0203911Y0020226D01*
X0203874Y0020146D01*
X0203834Y0020067D01*
X0203790Y0019990D01*
X0203743Y0019915D01*
X0203693Y0019843D01*
X0203639Y0019772D01*
X0203583Y0019705D01*
X0203523Y0019639D01*
X0203461Y0019577D01*
X0203395Y0019517D01*
X0203328Y0019461D01*
X0203257Y0019407D01*
X0203185Y0019357D01*
X0203110Y0019310D01*
X0203033Y0019266D01*
X0202954Y0019226D01*
X0202874Y0019189D01*
X0202792Y0019157D01*
X0202708Y0019127D01*
X0202624Y0019102D01*
X0202538Y0019080D01*
X0202452Y0019063D01*
X0202364Y0019049D01*
X0202276Y0019039D01*
X0202188Y0019033D01*
X0202100Y0019031D01*
X0202012Y0019033D01*
X0201924Y0019039D01*
X0201836Y0019049D01*
X0201748Y0019063D01*
X0201662Y0019080D01*
X0201576Y0019102D01*
X0201492Y0019127D01*
X0201408Y0019157D01*
X0201326Y0019189D01*
X0201246Y0019226D01*
X0201167Y0019266D01*
X0201090Y0019310D01*
X0201015Y0019357D01*
X0200943Y0019407D01*
X0200872Y0019461D01*
X0200805Y0019517D01*
X0200739Y0019577D01*
X0200677Y0019639D01*
X0200617Y0019705D01*
X0200561Y0019772D01*
X0200507Y0019843D01*
X0200457Y0019915D01*
X0200410Y0019990D01*
X0200366Y0020067D01*
X0200326Y0020146D01*
X0200289Y0020226D01*
X0200257Y0020308D01*
X0200227Y0020392D01*
X0200202Y0020476D01*
X0200180Y0020562D01*
X0200163Y0020648D01*
X0200149Y0020736D01*
X0200139Y0020824D01*
X0200133Y0020912D01*
X0200131Y0021000D01*
X0020131Y0161000D02*
X0020133Y0161088D01*
X0020139Y0161176D01*
X0020149Y0161264D01*
X0020163Y0161352D01*
X0020180Y0161438D01*
X0020202Y0161524D01*
X0020227Y0161608D01*
X0020257Y0161692D01*
X0020289Y0161774D01*
X0020326Y0161854D01*
X0020366Y0161933D01*
X0020410Y0162010D01*
X0020457Y0162085D01*
X0020507Y0162157D01*
X0020561Y0162228D01*
X0020617Y0162295D01*
X0020677Y0162361D01*
X0020739Y0162423D01*
X0020805Y0162483D01*
X0020872Y0162539D01*
X0020943Y0162593D01*
X0021015Y0162643D01*
X0021090Y0162690D01*
X0021167Y0162734D01*
X0021246Y0162774D01*
X0021326Y0162811D01*
X0021408Y0162843D01*
X0021492Y0162873D01*
X0021576Y0162898D01*
X0021662Y0162920D01*
X0021748Y0162937D01*
X0021836Y0162951D01*
X0021924Y0162961D01*
X0022012Y0162967D01*
X0022100Y0162969D01*
X0022188Y0162967D01*
X0022276Y0162961D01*
X0022364Y0162951D01*
X0022452Y0162937D01*
X0022538Y0162920D01*
X0022624Y0162898D01*
X0022708Y0162873D01*
X0022792Y0162843D01*
X0022874Y0162811D01*
X0022954Y0162774D01*
X0023033Y0162734D01*
X0023110Y0162690D01*
X0023185Y0162643D01*
X0023257Y0162593D01*
X0023328Y0162539D01*
X0023395Y0162483D01*
X0023461Y0162423D01*
X0023523Y0162361D01*
X0023583Y0162295D01*
X0023639Y0162228D01*
X0023693Y0162157D01*
X0023743Y0162085D01*
X0023790Y0162010D01*
X0023834Y0161933D01*
X0023874Y0161854D01*
X0023911Y0161774D01*
X0023943Y0161692D01*
X0023973Y0161608D01*
X0023998Y0161524D01*
X0024020Y0161438D01*
X0024037Y0161352D01*
X0024051Y0161264D01*
X0024061Y0161176D01*
X0024067Y0161088D01*
X0024069Y0161000D01*
X0024067Y0160912D01*
X0024061Y0160824D01*
X0024051Y0160736D01*
X0024037Y0160648D01*
X0024020Y0160562D01*
X0023998Y0160476D01*
X0023973Y0160392D01*
X0023943Y0160308D01*
X0023911Y0160226D01*
X0023874Y0160146D01*
X0023834Y0160067D01*
X0023790Y0159990D01*
X0023743Y0159915D01*
X0023693Y0159843D01*
X0023639Y0159772D01*
X0023583Y0159705D01*
X0023523Y0159639D01*
X0023461Y0159577D01*
X0023395Y0159517D01*
X0023328Y0159461D01*
X0023257Y0159407D01*
X0023185Y0159357D01*
X0023110Y0159310D01*
X0023033Y0159266D01*
X0022954Y0159226D01*
X0022874Y0159189D01*
X0022792Y0159157D01*
X0022708Y0159127D01*
X0022624Y0159102D01*
X0022538Y0159080D01*
X0022452Y0159063D01*
X0022364Y0159049D01*
X0022276Y0159039D01*
X0022188Y0159033D01*
X0022100Y0159031D01*
X0022012Y0159033D01*
X0021924Y0159039D01*
X0021836Y0159049D01*
X0021748Y0159063D01*
X0021662Y0159080D01*
X0021576Y0159102D01*
X0021492Y0159127D01*
X0021408Y0159157D01*
X0021326Y0159189D01*
X0021246Y0159226D01*
X0021167Y0159266D01*
X0021090Y0159310D01*
X0021015Y0159357D01*
X0020943Y0159407D01*
X0020872Y0159461D01*
X0020805Y0159517D01*
X0020739Y0159577D01*
X0020677Y0159639D01*
X0020617Y0159705D01*
X0020561Y0159772D01*
X0020507Y0159843D01*
X0020457Y0159915D01*
X0020410Y0159990D01*
X0020366Y0160067D01*
X0020326Y0160146D01*
X0020289Y0160226D01*
X0020257Y0160308D01*
X0020227Y0160392D01*
X0020202Y0160476D01*
X0020180Y0160562D01*
X0020163Y0160648D01*
X0020149Y0160736D01*
X0020139Y0160824D01*
X0020133Y0160912D01*
X0020131Y0161000D01*
X0136831Y0162300D02*
X0136833Y0162388D01*
X0136839Y0162476D01*
X0136849Y0162564D01*
X0136863Y0162652D01*
X0136880Y0162738D01*
X0136902Y0162824D01*
X0136927Y0162908D01*
X0136957Y0162992D01*
X0136989Y0163074D01*
X0137026Y0163154D01*
X0137066Y0163233D01*
X0137110Y0163310D01*
X0137157Y0163385D01*
X0137207Y0163457D01*
X0137261Y0163528D01*
X0137317Y0163595D01*
X0137377Y0163661D01*
X0137439Y0163723D01*
X0137505Y0163783D01*
X0137572Y0163839D01*
X0137643Y0163893D01*
X0137715Y0163943D01*
X0137790Y0163990D01*
X0137867Y0164034D01*
X0137946Y0164074D01*
X0138026Y0164111D01*
X0138108Y0164143D01*
X0138192Y0164173D01*
X0138276Y0164198D01*
X0138362Y0164220D01*
X0138448Y0164237D01*
X0138536Y0164251D01*
X0138624Y0164261D01*
X0138712Y0164267D01*
X0138800Y0164269D01*
X0138888Y0164267D01*
X0138976Y0164261D01*
X0139064Y0164251D01*
X0139152Y0164237D01*
X0139238Y0164220D01*
X0139324Y0164198D01*
X0139408Y0164173D01*
X0139492Y0164143D01*
X0139574Y0164111D01*
X0139654Y0164074D01*
X0139733Y0164034D01*
X0139810Y0163990D01*
X0139885Y0163943D01*
X0139957Y0163893D01*
X0140028Y0163839D01*
X0140095Y0163783D01*
X0140161Y0163723D01*
X0140223Y0163661D01*
X0140283Y0163595D01*
X0140339Y0163528D01*
X0140393Y0163457D01*
X0140443Y0163385D01*
X0140490Y0163310D01*
X0140534Y0163233D01*
X0140574Y0163154D01*
X0140611Y0163074D01*
X0140643Y0162992D01*
X0140673Y0162908D01*
X0140698Y0162824D01*
X0140720Y0162738D01*
X0140737Y0162652D01*
X0140751Y0162564D01*
X0140761Y0162476D01*
X0140767Y0162388D01*
X0140769Y0162300D01*
X0140767Y0162212D01*
X0140761Y0162124D01*
X0140751Y0162036D01*
X0140737Y0161948D01*
X0140720Y0161862D01*
X0140698Y0161776D01*
X0140673Y0161692D01*
X0140643Y0161608D01*
X0140611Y0161526D01*
X0140574Y0161446D01*
X0140534Y0161367D01*
X0140490Y0161290D01*
X0140443Y0161215D01*
X0140393Y0161143D01*
X0140339Y0161072D01*
X0140283Y0161005D01*
X0140223Y0160939D01*
X0140161Y0160877D01*
X0140095Y0160817D01*
X0140028Y0160761D01*
X0139957Y0160707D01*
X0139885Y0160657D01*
X0139810Y0160610D01*
X0139733Y0160566D01*
X0139654Y0160526D01*
X0139574Y0160489D01*
X0139492Y0160457D01*
X0139408Y0160427D01*
X0139324Y0160402D01*
X0139238Y0160380D01*
X0139152Y0160363D01*
X0139064Y0160349D01*
X0138976Y0160339D01*
X0138888Y0160333D01*
X0138800Y0160331D01*
X0138712Y0160333D01*
X0138624Y0160339D01*
X0138536Y0160349D01*
X0138448Y0160363D01*
X0138362Y0160380D01*
X0138276Y0160402D01*
X0138192Y0160427D01*
X0138108Y0160457D01*
X0138026Y0160489D01*
X0137946Y0160526D01*
X0137867Y0160566D01*
X0137790Y0160610D01*
X0137715Y0160657D01*
X0137643Y0160707D01*
X0137572Y0160761D01*
X0137505Y0160817D01*
X0137439Y0160877D01*
X0137377Y0160939D01*
X0137317Y0161005D01*
X0137261Y0161072D01*
X0137207Y0161143D01*
X0137157Y0161215D01*
X0137110Y0161290D01*
X0137066Y0161367D01*
X0137026Y0161446D01*
X0136989Y0161526D01*
X0136957Y0161608D01*
X0136927Y0161692D01*
X0136902Y0161776D01*
X0136880Y0161862D01*
X0136863Y0161948D01*
X0136849Y0162036D01*
X0136839Y0162124D01*
X0136833Y0162212D01*
X0136831Y0162300D01*
D11*
X0104021Y0151000D02*
X0104023Y0150819D01*
X0104030Y0150638D01*
X0104040Y0150457D01*
X0104056Y0150277D01*
X0104075Y0150097D01*
X0104099Y0149918D01*
X0104127Y0149739D01*
X0104159Y0149561D01*
X0104195Y0149383D01*
X0104236Y0149207D01*
X0104281Y0149032D01*
X0104330Y0148858D01*
X0104383Y0148685D01*
X0104441Y0148513D01*
X0104502Y0148343D01*
X0104567Y0148174D01*
X0104637Y0148007D01*
X0104710Y0147841D01*
X0104788Y0147678D01*
X0104532Y0148444D02*
X0108621Y0153556D01*
X0106577Y0155600D02*
X0106493Y0155598D01*
X0106410Y0155593D01*
X0106326Y0155583D01*
X0106244Y0155570D01*
X0106162Y0155554D01*
X0106080Y0155534D01*
X0106000Y0155510D01*
X0105921Y0155482D01*
X0105843Y0155452D01*
X0105766Y0155417D01*
X0105691Y0155380D01*
X0105618Y0155339D01*
X0105547Y0155295D01*
X0105478Y0155248D01*
X0105411Y0155198D01*
X0105346Y0155144D01*
X0105284Y0155089D01*
X0105224Y0155030D01*
X0105167Y0154969D01*
X0105112Y0154905D01*
X0105061Y0154839D01*
X0105012Y0154771D01*
X0104967Y0154700D01*
X0104924Y0154628D01*
X0104885Y0154554D01*
X0104850Y0154478D01*
X0104817Y0154401D01*
X0104788Y0154322D01*
X0106577Y0155600D02*
X0106661Y0155598D01*
X0106744Y0155593D01*
X0106828Y0155583D01*
X0106910Y0155570D01*
X0106992Y0155554D01*
X0107074Y0155534D01*
X0107154Y0155510D01*
X0107233Y0155482D01*
X0107311Y0155452D01*
X0107388Y0155417D01*
X0107463Y0155380D01*
X0107536Y0155339D01*
X0107607Y0155295D01*
X0107676Y0155248D01*
X0107743Y0155198D01*
X0107808Y0155144D01*
X0107870Y0155089D01*
X0107930Y0155030D01*
X0107987Y0154969D01*
X0108042Y0154905D01*
X0108093Y0154839D01*
X0108142Y0154771D01*
X0108187Y0154700D01*
X0108230Y0154628D01*
X0108269Y0154554D01*
X0108304Y0154478D01*
X0108337Y0154401D01*
X0108366Y0154322D01*
X0104788Y0154322D02*
X0104710Y0154159D01*
X0104637Y0153993D01*
X0104567Y0153826D01*
X0104502Y0153657D01*
X0104441Y0153487D01*
X0104383Y0153316D01*
X0104330Y0153143D01*
X0104281Y0152968D01*
X0104236Y0152793D01*
X0104195Y0152617D01*
X0104159Y0152439D01*
X0104127Y0152261D01*
X0104099Y0152082D01*
X0104075Y0151903D01*
X0104056Y0151723D01*
X0104040Y0151543D01*
X0104030Y0151362D01*
X0104023Y0151181D01*
X0104021Y0151000D01*
X0109132Y0151000D02*
X0109130Y0151181D01*
X0109123Y0151362D01*
X0109113Y0151542D01*
X0109097Y0151723D01*
X0109078Y0151903D01*
X0109054Y0152082D01*
X0109026Y0152261D01*
X0108994Y0152439D01*
X0108958Y0152616D01*
X0108917Y0152793D01*
X0108872Y0152968D01*
X0108823Y0153142D01*
X0108770Y0153315D01*
X0108712Y0153487D01*
X0108651Y0153657D01*
X0108586Y0153826D01*
X0108516Y0153993D01*
X0108443Y0154158D01*
X0108365Y0154322D01*
X0109133Y0151000D02*
X0109131Y0150819D01*
X0109124Y0150638D01*
X0109114Y0150457D01*
X0109098Y0150277D01*
X0109079Y0150097D01*
X0109055Y0149918D01*
X0109027Y0149739D01*
X0108995Y0149561D01*
X0108959Y0149383D01*
X0108918Y0149207D01*
X0108873Y0149032D01*
X0108824Y0148857D01*
X0108771Y0148684D01*
X0108713Y0148513D01*
X0108652Y0148343D01*
X0108587Y0148174D01*
X0108517Y0148007D01*
X0108444Y0147841D01*
X0108366Y0147678D01*
X0108337Y0147599D01*
X0108304Y0147522D01*
X0108269Y0147446D01*
X0108230Y0147372D01*
X0108187Y0147300D01*
X0108142Y0147229D01*
X0108093Y0147161D01*
X0108042Y0147095D01*
X0107987Y0147031D01*
X0107930Y0146970D01*
X0107870Y0146911D01*
X0107808Y0146856D01*
X0107743Y0146802D01*
X0107676Y0146752D01*
X0107607Y0146705D01*
X0107536Y0146661D01*
X0107463Y0146620D01*
X0107388Y0146583D01*
X0107311Y0146548D01*
X0107233Y0146518D01*
X0107154Y0146490D01*
X0107074Y0146466D01*
X0106992Y0146446D01*
X0106910Y0146430D01*
X0106828Y0146417D01*
X0106744Y0146407D01*
X0106661Y0146402D01*
X0106577Y0146400D01*
X0106493Y0146402D01*
X0106410Y0146407D01*
X0106326Y0146417D01*
X0106244Y0146430D01*
X0106162Y0146446D01*
X0106080Y0146466D01*
X0106000Y0146490D01*
X0105921Y0146518D01*
X0105843Y0146548D01*
X0105766Y0146583D01*
X0105691Y0146620D01*
X0105618Y0146661D01*
X0105547Y0146705D01*
X0105478Y0146752D01*
X0105411Y0146802D01*
X0105346Y0146856D01*
X0105284Y0146911D01*
X0105224Y0146970D01*
X0105167Y0147031D01*
X0105112Y0147095D01*
X0105061Y0147161D01*
X0105012Y0147229D01*
X0104967Y0147300D01*
X0104924Y0147372D01*
X0104885Y0147446D01*
X0104850Y0147522D01*
X0104817Y0147599D01*
X0104788Y0147678D01*
X0101078Y0146911D02*
X0101078Y0146400D01*
X0100567Y0146400D01*
X0100567Y0146911D01*
X0101078Y0146911D01*
X0097624Y0146400D02*
X0092513Y0146400D01*
X0095069Y0146400D02*
X0095069Y0155600D01*
X0092513Y0153556D01*
X0089715Y0152533D02*
X0087671Y0146400D01*
X0085626Y0152533D01*
X0078481Y0150489D02*
X0078481Y0149467D01*
X0074392Y0149467D01*
X0074392Y0150489D02*
X0074392Y0147933D01*
X0074393Y0147933D02*
X0074395Y0147858D01*
X0074400Y0147783D01*
X0074410Y0147708D01*
X0074422Y0147634D01*
X0074439Y0147561D01*
X0074459Y0147488D01*
X0074483Y0147417D01*
X0074510Y0147346D01*
X0074540Y0147278D01*
X0074574Y0147210D01*
X0074611Y0147145D01*
X0074651Y0147081D01*
X0074695Y0147020D01*
X0074741Y0146960D01*
X0074790Y0146904D01*
X0074842Y0146849D01*
X0074897Y0146797D01*
X0074953Y0146748D01*
X0075013Y0146702D01*
X0075074Y0146658D01*
X0075138Y0146618D01*
X0075203Y0146581D01*
X0075271Y0146547D01*
X0075339Y0146517D01*
X0075410Y0146490D01*
X0075481Y0146466D01*
X0075554Y0146446D01*
X0075627Y0146429D01*
X0075701Y0146417D01*
X0075776Y0146407D01*
X0075851Y0146402D01*
X0075926Y0146400D01*
X0078481Y0146400D01*
X0078481Y0150489D02*
X0078479Y0150578D01*
X0078473Y0150667D01*
X0078464Y0150756D01*
X0078450Y0150844D01*
X0078433Y0150931D01*
X0078411Y0151018D01*
X0078386Y0151104D01*
X0078358Y0151188D01*
X0078325Y0151271D01*
X0078289Y0151353D01*
X0078250Y0151433D01*
X0078207Y0151511D01*
X0078161Y0151587D01*
X0078111Y0151661D01*
X0078059Y0151733D01*
X0078003Y0151803D01*
X0077944Y0151870D01*
X0077882Y0151934D01*
X0077818Y0151996D01*
X0077751Y0152055D01*
X0077681Y0152111D01*
X0077609Y0152163D01*
X0077535Y0152213D01*
X0077459Y0152259D01*
X0077381Y0152302D01*
X0077301Y0152341D01*
X0077219Y0152377D01*
X0077136Y0152410D01*
X0077052Y0152438D01*
X0076966Y0152463D01*
X0076879Y0152485D01*
X0076792Y0152502D01*
X0076704Y0152516D01*
X0076615Y0152525D01*
X0076526Y0152531D01*
X0076437Y0152533D01*
X0076348Y0152531D01*
X0076259Y0152525D01*
X0076170Y0152516D01*
X0076082Y0152502D01*
X0075995Y0152485D01*
X0075908Y0152463D01*
X0075822Y0152438D01*
X0075738Y0152410D01*
X0075655Y0152377D01*
X0075573Y0152341D01*
X0075493Y0152302D01*
X0075415Y0152259D01*
X0075339Y0152213D01*
X0075265Y0152163D01*
X0075193Y0152111D01*
X0075123Y0152055D01*
X0075056Y0151996D01*
X0074992Y0151934D01*
X0074930Y0151870D01*
X0074871Y0151803D01*
X0074815Y0151733D01*
X0074763Y0151661D01*
X0074713Y0151587D01*
X0074667Y0151511D01*
X0074624Y0151433D01*
X0074585Y0151353D01*
X0074549Y0151271D01*
X0074516Y0151188D01*
X0074488Y0151104D01*
X0074463Y0151018D01*
X0074441Y0150931D01*
X0074424Y0150844D01*
X0074410Y0150756D01*
X0074401Y0150667D01*
X0074395Y0150578D01*
X0074393Y0150489D01*
X0071377Y0151000D02*
X0071377Y0147933D01*
X0071375Y0147858D01*
X0071370Y0147783D01*
X0071360Y0147708D01*
X0071348Y0147634D01*
X0071331Y0147561D01*
X0071311Y0147488D01*
X0071287Y0147417D01*
X0071260Y0147346D01*
X0071230Y0147278D01*
X0071196Y0147210D01*
X0071159Y0147145D01*
X0071119Y0147081D01*
X0071075Y0147020D01*
X0071029Y0146960D01*
X0070980Y0146904D01*
X0070928Y0146849D01*
X0070874Y0146797D01*
X0070817Y0146748D01*
X0070757Y0146702D01*
X0070696Y0146658D01*
X0070632Y0146618D01*
X0070567Y0146581D01*
X0070499Y0146547D01*
X0070431Y0146517D01*
X0070360Y0146490D01*
X0070289Y0146466D01*
X0070216Y0146446D01*
X0070143Y0146429D01*
X0070069Y0146417D01*
X0069994Y0146407D01*
X0069919Y0146402D01*
X0069844Y0146400D01*
X0067288Y0146400D01*
X0067288Y0155600D01*
X0067288Y0152533D02*
X0069844Y0152533D01*
X0069919Y0152531D01*
X0069994Y0152526D01*
X0070069Y0152516D01*
X0070143Y0152504D01*
X0070216Y0152487D01*
X0070289Y0152467D01*
X0070360Y0152443D01*
X0070431Y0152416D01*
X0070499Y0152386D01*
X0070567Y0152352D01*
X0070632Y0152315D01*
X0070696Y0152275D01*
X0070757Y0152231D01*
X0070817Y0152185D01*
X0070873Y0152136D01*
X0070928Y0152084D01*
X0070980Y0152029D01*
X0071029Y0151973D01*
X0071075Y0151913D01*
X0071119Y0151852D01*
X0071159Y0151788D01*
X0071196Y0151723D01*
X0071230Y0151655D01*
X0071260Y0151587D01*
X0071287Y0151516D01*
X0071311Y0151445D01*
X0071331Y0151372D01*
X0071348Y0151299D01*
X0071360Y0151225D01*
X0071370Y0151150D01*
X0071375Y0151075D01*
X0071377Y0151000D01*
X0063685Y0152533D02*
X0063685Y0146400D01*
X0061130Y0146400D01*
X0061055Y0146402D01*
X0060980Y0146407D01*
X0060905Y0146417D01*
X0060831Y0146429D01*
X0060758Y0146446D01*
X0060685Y0146466D01*
X0060614Y0146490D01*
X0060543Y0146517D01*
X0060475Y0146547D01*
X0060407Y0146581D01*
X0060342Y0146618D01*
X0060278Y0146658D01*
X0060217Y0146702D01*
X0060157Y0146748D01*
X0060101Y0146797D01*
X0060046Y0146849D01*
X0059994Y0146904D01*
X0059945Y0146960D01*
X0059899Y0147020D01*
X0059855Y0147081D01*
X0059815Y0147145D01*
X0059778Y0147210D01*
X0059744Y0147278D01*
X0059714Y0147346D01*
X0059687Y0147417D01*
X0059663Y0147488D01*
X0059643Y0147561D01*
X0059626Y0147634D01*
X0059614Y0147708D01*
X0059604Y0147783D01*
X0059599Y0147858D01*
X0059597Y0147933D01*
X0059596Y0147933D02*
X0059596Y0152533D01*
X0056589Y0155600D02*
X0054544Y0155600D01*
X0054455Y0155598D01*
X0054366Y0155592D01*
X0054277Y0155583D01*
X0054189Y0155569D01*
X0054102Y0155552D01*
X0054015Y0155530D01*
X0053929Y0155505D01*
X0053845Y0155477D01*
X0053762Y0155444D01*
X0053680Y0155408D01*
X0053600Y0155369D01*
X0053522Y0155326D01*
X0053446Y0155280D01*
X0053372Y0155230D01*
X0053300Y0155178D01*
X0053230Y0155122D01*
X0053163Y0155063D01*
X0053099Y0155001D01*
X0053037Y0154937D01*
X0052978Y0154870D01*
X0052922Y0154800D01*
X0052870Y0154728D01*
X0052820Y0154654D01*
X0052774Y0154578D01*
X0052731Y0154500D01*
X0052692Y0154420D01*
X0052656Y0154338D01*
X0052623Y0154255D01*
X0052595Y0154171D01*
X0052570Y0154085D01*
X0052548Y0153998D01*
X0052531Y0153911D01*
X0052517Y0153823D01*
X0052508Y0153734D01*
X0052502Y0153645D01*
X0052500Y0153556D01*
X0052500Y0148444D01*
X0052502Y0148355D01*
X0052508Y0148266D01*
X0052517Y0148177D01*
X0052531Y0148089D01*
X0052548Y0148002D01*
X0052570Y0147915D01*
X0052595Y0147829D01*
X0052623Y0147745D01*
X0052656Y0147662D01*
X0052692Y0147580D01*
X0052731Y0147500D01*
X0052774Y0147422D01*
X0052820Y0147346D01*
X0052870Y0147272D01*
X0052922Y0147200D01*
X0052978Y0147130D01*
X0053037Y0147063D01*
X0053099Y0146999D01*
X0053163Y0146937D01*
X0053230Y0146878D01*
X0053300Y0146822D01*
X0053372Y0146770D01*
X0053446Y0146720D01*
X0053522Y0146674D01*
X0053600Y0146631D01*
X0053680Y0146592D01*
X0053762Y0146556D01*
X0053845Y0146523D01*
X0053929Y0146495D01*
X0054015Y0146470D01*
X0054102Y0146448D01*
X0054189Y0146431D01*
X0054277Y0146417D01*
X0054366Y0146408D01*
X0054455Y0146402D01*
X0054544Y0146400D01*
X0056589Y0146400D01*
D12*
X0168600Y0139813D03*
X0180600Y0139813D03*
X0185600Y0132187D03*
X0205913Y0064500D03*
X0205913Y0052500D03*
X0198287Y0047500D03*
D13*
X0198287Y0058500D03*
X0174600Y0132187D03*
D14*
X0229100Y0091000D02*
X0235100Y0091000D01*
X0235100Y0081000D02*
X0229100Y0081000D01*
X0229100Y0071000D02*
X0235100Y0071000D01*
X0235100Y0061000D02*
X0229100Y0061000D01*
X0229100Y0051000D02*
X0235100Y0051000D01*
X0235100Y0041000D02*
X0229100Y0041000D01*
X0229100Y0031000D02*
X0235100Y0031000D01*
X0235100Y0021000D02*
X0229100Y0021000D01*
D15*
X0142100Y0116000D03*
X0122100Y0121000D03*
X0092100Y0121000D03*
X0077100Y0121000D03*
X0047100Y0121000D03*
X0032100Y0121000D03*
X0032100Y0151000D03*
X0142100Y0146000D03*
D16*
X0194994Y0144843D03*
X0194994Y0125157D03*
X0244206Y0125157D03*
X0244206Y0144843D03*
D17*
X0139300Y0105200D02*
X0139300Y0096800D01*
X0132900Y0096800D01*
X0132900Y0105200D01*
X0139300Y0105200D01*
X0139300Y0098399D02*
X0132900Y0098399D01*
X0132900Y0099998D02*
X0139300Y0099998D01*
X0139300Y0101597D02*
X0132900Y0101597D01*
X0132900Y0103196D02*
X0139300Y0103196D01*
X0139300Y0104795D02*
X0132900Y0104795D01*
X0129300Y0105200D02*
X0129300Y0096800D01*
X0122900Y0096800D01*
X0122900Y0105200D01*
X0129300Y0105200D01*
X0129300Y0098399D02*
X0122900Y0098399D01*
X0122900Y0099998D02*
X0129300Y0099998D01*
X0129300Y0101597D02*
X0122900Y0101597D01*
X0122900Y0103196D02*
X0129300Y0103196D01*
X0129300Y0104795D02*
X0122900Y0104795D01*
X0119300Y0105200D02*
X0119300Y0096800D01*
X0112900Y0096800D01*
X0112900Y0105200D01*
X0119300Y0105200D01*
X0119300Y0098399D02*
X0112900Y0098399D01*
X0112900Y0099998D02*
X0119300Y0099998D01*
X0119300Y0101597D02*
X0112900Y0101597D01*
X0112900Y0103196D02*
X0119300Y0103196D01*
X0119300Y0104795D02*
X0112900Y0104795D01*
X0109300Y0105200D02*
X0109300Y0096800D01*
X0102900Y0096800D01*
X0102900Y0105200D01*
X0109300Y0105200D01*
X0109300Y0098399D02*
X0102900Y0098399D01*
X0102900Y0099998D02*
X0109300Y0099998D01*
X0109300Y0101597D02*
X0102900Y0101597D01*
X0102900Y0103196D02*
X0109300Y0103196D01*
X0109300Y0104795D02*
X0102900Y0104795D01*
X0099300Y0105200D02*
X0099300Y0096800D01*
X0092900Y0096800D01*
X0092900Y0105200D01*
X0099300Y0105200D01*
X0099300Y0098399D02*
X0092900Y0098399D01*
X0092900Y0099998D02*
X0099300Y0099998D01*
X0099300Y0101597D02*
X0092900Y0101597D01*
X0092900Y0103196D02*
X0099300Y0103196D01*
X0099300Y0104795D02*
X0092900Y0104795D01*
X0089300Y0105200D02*
X0089300Y0096800D01*
X0082900Y0096800D01*
X0082900Y0105200D01*
X0089300Y0105200D01*
X0089300Y0098399D02*
X0082900Y0098399D01*
X0082900Y0099998D02*
X0089300Y0099998D01*
X0089300Y0101597D02*
X0082900Y0101597D01*
X0082900Y0103196D02*
X0089300Y0103196D01*
X0089300Y0104795D02*
X0082900Y0104795D01*
X0079300Y0105200D02*
X0079300Y0096800D01*
X0072900Y0096800D01*
X0072900Y0105200D01*
X0079300Y0105200D01*
X0079300Y0098399D02*
X0072900Y0098399D01*
X0072900Y0099998D02*
X0079300Y0099998D01*
X0079300Y0101597D02*
X0072900Y0101597D01*
X0072900Y0103196D02*
X0079300Y0103196D01*
X0079300Y0104795D02*
X0072900Y0104795D01*
X0069300Y0105200D02*
X0069300Y0096800D01*
X0062900Y0096800D01*
X0062900Y0105200D01*
X0069300Y0105200D01*
X0069300Y0098399D02*
X0062900Y0098399D01*
X0062900Y0099998D02*
X0069300Y0099998D01*
X0069300Y0101597D02*
X0062900Y0101597D01*
X0062900Y0103196D02*
X0069300Y0103196D01*
X0069300Y0104795D02*
X0062900Y0104795D01*
X0059300Y0105200D02*
X0059300Y0096800D01*
X0052900Y0096800D01*
X0052900Y0105200D01*
X0059300Y0105200D01*
X0059300Y0098399D02*
X0052900Y0098399D01*
X0052900Y0099998D02*
X0059300Y0099998D01*
X0059300Y0101597D02*
X0052900Y0101597D01*
X0052900Y0103196D02*
X0059300Y0103196D01*
X0059300Y0104795D02*
X0052900Y0104795D01*
X0049300Y0105200D02*
X0049300Y0096800D01*
X0042900Y0096800D01*
X0042900Y0105200D01*
X0049300Y0105200D01*
X0049300Y0098399D02*
X0042900Y0098399D01*
X0042900Y0099998D02*
X0049300Y0099998D01*
X0049300Y0101597D02*
X0042900Y0101597D01*
X0042900Y0103196D02*
X0049300Y0103196D01*
X0049300Y0104795D02*
X0042900Y0104795D01*
X0039300Y0105200D02*
X0039300Y0096800D01*
X0032900Y0096800D01*
X0032900Y0105200D01*
X0039300Y0105200D01*
X0039300Y0098399D02*
X0032900Y0098399D01*
X0032900Y0099998D02*
X0039300Y0099998D01*
X0039300Y0101597D02*
X0032900Y0101597D01*
X0032900Y0103196D02*
X0039300Y0103196D01*
X0039300Y0104795D02*
X0032900Y0104795D01*
X0029300Y0105200D02*
X0029300Y0096800D01*
X0022900Y0096800D01*
X0022900Y0105200D01*
X0029300Y0105200D01*
X0029300Y0098399D02*
X0022900Y0098399D01*
X0022900Y0099998D02*
X0029300Y0099998D01*
X0029300Y0101597D02*
X0022900Y0101597D01*
X0022900Y0103196D02*
X0029300Y0103196D01*
X0029300Y0104795D02*
X0022900Y0104795D01*
X0029300Y0025200D02*
X0029300Y0016800D01*
X0022900Y0016800D01*
X0022900Y0025200D01*
X0029300Y0025200D01*
X0029300Y0018399D02*
X0022900Y0018399D01*
X0022900Y0019998D02*
X0029300Y0019998D01*
X0029300Y0021597D02*
X0022900Y0021597D01*
X0022900Y0023196D02*
X0029300Y0023196D01*
X0029300Y0024795D02*
X0022900Y0024795D01*
X0039300Y0025200D02*
X0039300Y0016800D01*
X0032900Y0016800D01*
X0032900Y0025200D01*
X0039300Y0025200D01*
X0039300Y0018399D02*
X0032900Y0018399D01*
X0032900Y0019998D02*
X0039300Y0019998D01*
X0039300Y0021597D02*
X0032900Y0021597D01*
X0032900Y0023196D02*
X0039300Y0023196D01*
X0039300Y0024795D02*
X0032900Y0024795D01*
X0049300Y0025200D02*
X0049300Y0016800D01*
X0042900Y0016800D01*
X0042900Y0025200D01*
X0049300Y0025200D01*
X0049300Y0018399D02*
X0042900Y0018399D01*
X0042900Y0019998D02*
X0049300Y0019998D01*
X0049300Y0021597D02*
X0042900Y0021597D01*
X0042900Y0023196D02*
X0049300Y0023196D01*
X0049300Y0024795D02*
X0042900Y0024795D01*
X0059300Y0025200D02*
X0059300Y0016800D01*
X0052900Y0016800D01*
X0052900Y0025200D01*
X0059300Y0025200D01*
X0059300Y0018399D02*
X0052900Y0018399D01*
X0052900Y0019998D02*
X0059300Y0019998D01*
X0059300Y0021597D02*
X0052900Y0021597D01*
X0052900Y0023196D02*
X0059300Y0023196D01*
X0059300Y0024795D02*
X0052900Y0024795D01*
X0069300Y0025200D02*
X0069300Y0016800D01*
X0062900Y0016800D01*
X0062900Y0025200D01*
X0069300Y0025200D01*
X0069300Y0018399D02*
X0062900Y0018399D01*
X0062900Y0019998D02*
X0069300Y0019998D01*
X0069300Y0021597D02*
X0062900Y0021597D01*
X0062900Y0023196D02*
X0069300Y0023196D01*
X0069300Y0024795D02*
X0062900Y0024795D01*
X0079300Y0025200D02*
X0079300Y0016800D01*
X0072900Y0016800D01*
X0072900Y0025200D01*
X0079300Y0025200D01*
X0079300Y0018399D02*
X0072900Y0018399D01*
X0072900Y0019998D02*
X0079300Y0019998D01*
X0079300Y0021597D02*
X0072900Y0021597D01*
X0072900Y0023196D02*
X0079300Y0023196D01*
X0079300Y0024795D02*
X0072900Y0024795D01*
X0089300Y0025200D02*
X0089300Y0016800D01*
X0082900Y0016800D01*
X0082900Y0025200D01*
X0089300Y0025200D01*
X0089300Y0018399D02*
X0082900Y0018399D01*
X0082900Y0019998D02*
X0089300Y0019998D01*
X0089300Y0021597D02*
X0082900Y0021597D01*
X0082900Y0023196D02*
X0089300Y0023196D01*
X0089300Y0024795D02*
X0082900Y0024795D01*
X0099300Y0025200D02*
X0099300Y0016800D01*
X0092900Y0016800D01*
X0092900Y0025200D01*
X0099300Y0025200D01*
X0099300Y0018399D02*
X0092900Y0018399D01*
X0092900Y0019998D02*
X0099300Y0019998D01*
X0099300Y0021597D02*
X0092900Y0021597D01*
X0092900Y0023196D02*
X0099300Y0023196D01*
X0099300Y0024795D02*
X0092900Y0024795D01*
X0109300Y0025200D02*
X0109300Y0016800D01*
X0102900Y0016800D01*
X0102900Y0025200D01*
X0109300Y0025200D01*
X0109300Y0018399D02*
X0102900Y0018399D01*
X0102900Y0019998D02*
X0109300Y0019998D01*
X0109300Y0021597D02*
X0102900Y0021597D01*
X0102900Y0023196D02*
X0109300Y0023196D01*
X0109300Y0024795D02*
X0102900Y0024795D01*
X0119300Y0025200D02*
X0119300Y0016800D01*
X0112900Y0016800D01*
X0112900Y0025200D01*
X0119300Y0025200D01*
X0119300Y0018399D02*
X0112900Y0018399D01*
X0112900Y0019998D02*
X0119300Y0019998D01*
X0119300Y0021597D02*
X0112900Y0021597D01*
X0112900Y0023196D02*
X0119300Y0023196D01*
X0119300Y0024795D02*
X0112900Y0024795D01*
X0129300Y0025200D02*
X0129300Y0016800D01*
X0122900Y0016800D01*
X0122900Y0025200D01*
X0129300Y0025200D01*
X0129300Y0018399D02*
X0122900Y0018399D01*
X0122900Y0019998D02*
X0129300Y0019998D01*
X0129300Y0021597D02*
X0122900Y0021597D01*
X0122900Y0023196D02*
X0129300Y0023196D01*
X0129300Y0024795D02*
X0122900Y0024795D01*
X0139300Y0025200D02*
X0139300Y0016800D01*
X0132900Y0016800D01*
X0132900Y0025200D01*
X0139300Y0025200D01*
X0139300Y0018399D02*
X0132900Y0018399D01*
X0132900Y0019998D02*
X0139300Y0019998D01*
X0139300Y0021597D02*
X0132900Y0021597D01*
X0132900Y0023196D02*
X0139300Y0023196D01*
X0139300Y0024795D02*
X0132900Y0024795D01*
D18*
X0097900Y0034200D02*
X0097900Y0037800D01*
X0097900Y0034200D02*
X0094300Y0034200D01*
X0094300Y0037800D01*
X0097900Y0037800D01*
X0097900Y0035099D02*
X0094300Y0035099D01*
X0094300Y0035998D02*
X0097900Y0035998D01*
X0097900Y0036897D02*
X0094300Y0036897D01*
X0094300Y0037796D02*
X0097900Y0037796D01*
X0037900Y0084200D02*
X0037900Y0087800D01*
X0037900Y0084200D02*
X0034300Y0084200D01*
X0034300Y0087800D01*
X0037900Y0087800D01*
X0037900Y0085099D02*
X0034300Y0085099D01*
X0034300Y0085998D02*
X0037900Y0085998D01*
X0037900Y0086897D02*
X0034300Y0086897D01*
X0034300Y0087796D02*
X0037900Y0087796D01*
X0027900Y0087800D02*
X0027900Y0084200D01*
X0024300Y0084200D01*
X0024300Y0087800D01*
X0027900Y0087800D01*
X0027900Y0085099D02*
X0024300Y0085099D01*
X0024300Y0085998D02*
X0027900Y0085998D01*
X0027900Y0086897D02*
X0024300Y0086897D01*
X0024300Y0087796D02*
X0027900Y0087796D01*
D19*
X0028900Y0038800D02*
X0028900Y0033200D01*
X0023300Y0033200D01*
X0023300Y0038800D01*
X0028900Y0038800D01*
X0028900Y0034599D02*
X0023300Y0034599D01*
X0023300Y0035998D02*
X0028900Y0035998D01*
X0028900Y0037397D02*
X0023300Y0037397D01*
X0023300Y0038796D02*
X0028900Y0038796D01*
X0058900Y0038800D02*
X0058900Y0033200D01*
X0053300Y0033200D01*
X0053300Y0038800D01*
X0058900Y0038800D01*
X0058900Y0034599D02*
X0053300Y0034599D01*
X0053300Y0035998D02*
X0058900Y0035998D01*
X0058900Y0037397D02*
X0053300Y0037397D01*
X0053300Y0038796D02*
X0058900Y0038796D01*
D20*
X0018000Y0054600D02*
X0018000Y0059400D01*
X0018000Y0054600D02*
X0012200Y0054600D01*
X0012200Y0059400D01*
X0018000Y0059400D01*
X0018000Y0055799D02*
X0012200Y0055799D01*
X0012200Y0056998D02*
X0018000Y0056998D01*
X0018000Y0058197D02*
X0012200Y0058197D01*
X0012200Y0059396D02*
X0018000Y0059396D01*
X0018000Y0062600D02*
X0018000Y0067400D01*
X0018000Y0062600D02*
X0012200Y0062600D01*
X0012200Y0067400D01*
X0018000Y0067400D01*
X0018000Y0063799D02*
X0012200Y0063799D01*
X0012200Y0064998D02*
X0018000Y0064998D01*
X0018000Y0066197D02*
X0012200Y0066197D01*
X0012200Y0067396D02*
X0018000Y0067396D01*
D21*
X0036500Y0080400D02*
X0055700Y0099600D01*
X0055700Y0100800D01*
X0056100Y0101000D01*
X0056300Y0101400D01*
X0062300Y0107400D01*
X0068900Y0107400D01*
X0087500Y0126000D01*
X0185900Y0126000D01*
X0191900Y0132000D01*
X0197300Y0132000D01*
X0210500Y0118800D01*
X0210500Y0103800D01*
X0232100Y0082200D01*
X0232100Y0081000D01*
X0229100Y0065400D02*
X0209300Y0085200D01*
X0209300Y0118200D01*
X0196700Y0130800D01*
X0193100Y0130800D01*
X0186500Y0124200D01*
X0172700Y0124200D01*
X0172100Y0124800D01*
X0090500Y0124800D01*
X0086300Y0120600D01*
X0086300Y0101400D01*
X0086100Y0101000D01*
X0096100Y0101000D02*
X0096500Y0100800D01*
X0096500Y0060600D01*
X0106100Y0046200D02*
X0106100Y0101000D01*
X0116100Y0101000D02*
X0096500Y0120600D01*
X0092300Y0120600D01*
X0092100Y0121000D01*
X0126100Y0101000D02*
X0140900Y0115800D01*
X0142100Y0115800D01*
X0142100Y0116000D01*
X0136100Y0101400D02*
X0136100Y0101000D01*
X0136100Y0101400D02*
X0171500Y0101400D01*
X0194900Y0124800D01*
X0194994Y0125157D01*
X0174600Y0132187D02*
X0174500Y0132000D01*
X0043100Y0132000D01*
X0032100Y0121000D01*
X0031100Y0120000D01*
X0031100Y0033000D01*
X0026300Y0028200D01*
X0026300Y0021000D01*
X0026100Y0021000D01*
X0036100Y0021000D02*
X0036500Y0021000D01*
X0036500Y0080400D01*
X0070700Y0028200D02*
X0071900Y0027000D01*
X0090500Y0027000D01*
X0091100Y0026400D01*
X0091100Y0015600D01*
X0098900Y0007800D01*
X0158300Y0007800D01*
X0197900Y0047400D01*
X0198287Y0047500D01*
X0190100Y0043200D02*
X0161900Y0015000D01*
X0112100Y0015000D01*
X0106100Y0021000D01*
X0098300Y0006600D02*
X0086300Y0018600D01*
X0086300Y0021000D01*
X0086100Y0021000D01*
X0071900Y0027000D02*
X0070700Y0025800D01*
X0070700Y0025200D01*
X0066500Y0021000D01*
X0066100Y0021000D01*
X0098300Y0006600D02*
X0178100Y0006600D01*
X0232100Y0060600D01*
X0232100Y0061000D01*
X0229100Y0065400D02*
X0236300Y0065400D01*
X0239300Y0062400D01*
X0239300Y0048600D01*
X0232100Y0041400D01*
X0232100Y0041000D01*
X0168600Y0139813D02*
X0168500Y0140400D01*
X0163100Y0145800D01*
X0142100Y0145800D01*
X0142100Y0146000D01*
D22*
X0096500Y0060600D03*
X0106100Y0046200D03*
X0070700Y0028200D03*
X0190100Y0043200D03*
M02*
