%
M48
M72
T01C0.01378
T02C0.03150
T03C0.03200
T04C0.03937
T05C0.04000
T06C0.04724
%
T01
X70700Y28200
X106100Y46200
X96500Y60600
X190100Y43200
X197100Y91000
T02
X168600Y139813
X174600Y132187
X185600Y132187
X180600Y139813
X205913Y64500
X198287Y58500
X205913Y52500
X198287Y47500
T03
X142100Y116000
X122100Y121000
X92100Y121000
X77100Y121000
X47100Y121000
X32100Y121000
X32100Y151000
X142100Y146000
T04
X17100Y11000
X202100Y21000
X22100Y161000
X138800Y162300
T05
X232100Y91000
X232100Y81000
X232100Y71000
X232100Y61000
X232100Y51000
X232100Y41000
X232100Y31000
X232100Y21000
T06
X194994Y125157
X194994Y144843
X244206Y144843
X244206Y125157
M30
