G75*
%MOIN*%
%OFA0B0*%
%FSLAX25Y25*%
%IPPOS*%
%LPD*%
%AMOC8*
5,1,8,0,0,1.08239X$1,22.5*
%
%ADD10C,0.00000*%
%ADD11C,0.00500*%
%ADD12C,0.00400*%
%ADD13C,0.00600*%
%ADD14C,0.03000*%
%ADD15R,0.02000X0.03000*%
%ADD16R,0.04000X0.03000*%
%ADD17R,0.01500X0.02000*%
%ADD18R,0.02000X0.01500*%
%ADD19C,0.00800*%
%ADD20C,0.02756*%
%ADD21C,0.01200*%
D10*
X0007100Y0001000D02*
X0007100Y0175961D01*
X0270801Y0175961D01*
X0270801Y0001000D01*
X0007100Y0001000D01*
X0015131Y0011000D02*
X0015133Y0011088D01*
X0015139Y0011176D01*
X0015149Y0011264D01*
X0015163Y0011352D01*
X0015180Y0011438D01*
X0015202Y0011524D01*
X0015227Y0011608D01*
X0015257Y0011692D01*
X0015289Y0011774D01*
X0015326Y0011854D01*
X0015366Y0011933D01*
X0015410Y0012010D01*
X0015457Y0012085D01*
X0015507Y0012157D01*
X0015561Y0012228D01*
X0015617Y0012295D01*
X0015677Y0012361D01*
X0015739Y0012423D01*
X0015805Y0012483D01*
X0015872Y0012539D01*
X0015943Y0012593D01*
X0016015Y0012643D01*
X0016090Y0012690D01*
X0016167Y0012734D01*
X0016246Y0012774D01*
X0016326Y0012811D01*
X0016408Y0012843D01*
X0016492Y0012873D01*
X0016576Y0012898D01*
X0016662Y0012920D01*
X0016748Y0012937D01*
X0016836Y0012951D01*
X0016924Y0012961D01*
X0017012Y0012967D01*
X0017100Y0012969D01*
X0017188Y0012967D01*
X0017276Y0012961D01*
X0017364Y0012951D01*
X0017452Y0012937D01*
X0017538Y0012920D01*
X0017624Y0012898D01*
X0017708Y0012873D01*
X0017792Y0012843D01*
X0017874Y0012811D01*
X0017954Y0012774D01*
X0018033Y0012734D01*
X0018110Y0012690D01*
X0018185Y0012643D01*
X0018257Y0012593D01*
X0018328Y0012539D01*
X0018395Y0012483D01*
X0018461Y0012423D01*
X0018523Y0012361D01*
X0018583Y0012295D01*
X0018639Y0012228D01*
X0018693Y0012157D01*
X0018743Y0012085D01*
X0018790Y0012010D01*
X0018834Y0011933D01*
X0018874Y0011854D01*
X0018911Y0011774D01*
X0018943Y0011692D01*
X0018973Y0011608D01*
X0018998Y0011524D01*
X0019020Y0011438D01*
X0019037Y0011352D01*
X0019051Y0011264D01*
X0019061Y0011176D01*
X0019067Y0011088D01*
X0019069Y0011000D01*
X0019067Y0010912D01*
X0019061Y0010824D01*
X0019051Y0010736D01*
X0019037Y0010648D01*
X0019020Y0010562D01*
X0018998Y0010476D01*
X0018973Y0010392D01*
X0018943Y0010308D01*
X0018911Y0010226D01*
X0018874Y0010146D01*
X0018834Y0010067D01*
X0018790Y0009990D01*
X0018743Y0009915D01*
X0018693Y0009843D01*
X0018639Y0009772D01*
X0018583Y0009705D01*
X0018523Y0009639D01*
X0018461Y0009577D01*
X0018395Y0009517D01*
X0018328Y0009461D01*
X0018257Y0009407D01*
X0018185Y0009357D01*
X0018110Y0009310D01*
X0018033Y0009266D01*
X0017954Y0009226D01*
X0017874Y0009189D01*
X0017792Y0009157D01*
X0017708Y0009127D01*
X0017624Y0009102D01*
X0017538Y0009080D01*
X0017452Y0009063D01*
X0017364Y0009049D01*
X0017276Y0009039D01*
X0017188Y0009033D01*
X0017100Y0009031D01*
X0017012Y0009033D01*
X0016924Y0009039D01*
X0016836Y0009049D01*
X0016748Y0009063D01*
X0016662Y0009080D01*
X0016576Y0009102D01*
X0016492Y0009127D01*
X0016408Y0009157D01*
X0016326Y0009189D01*
X0016246Y0009226D01*
X0016167Y0009266D01*
X0016090Y0009310D01*
X0016015Y0009357D01*
X0015943Y0009407D01*
X0015872Y0009461D01*
X0015805Y0009517D01*
X0015739Y0009577D01*
X0015677Y0009639D01*
X0015617Y0009705D01*
X0015561Y0009772D01*
X0015507Y0009843D01*
X0015457Y0009915D01*
X0015410Y0009990D01*
X0015366Y0010067D01*
X0015326Y0010146D01*
X0015289Y0010226D01*
X0015257Y0010308D01*
X0015227Y0010392D01*
X0015202Y0010476D01*
X0015180Y0010562D01*
X0015163Y0010648D01*
X0015149Y0010736D01*
X0015139Y0010824D01*
X0015133Y0010912D01*
X0015131Y0011000D01*
X0196411Y0091000D02*
X0196413Y0091052D01*
X0196419Y0091104D01*
X0196429Y0091155D01*
X0196442Y0091205D01*
X0196460Y0091255D01*
X0196481Y0091302D01*
X0196505Y0091348D01*
X0196534Y0091392D01*
X0196565Y0091434D01*
X0196599Y0091473D01*
X0196636Y0091510D01*
X0196676Y0091543D01*
X0196719Y0091574D01*
X0196763Y0091601D01*
X0196809Y0091625D01*
X0196858Y0091645D01*
X0196907Y0091661D01*
X0196958Y0091674D01*
X0197009Y0091683D01*
X0197061Y0091688D01*
X0197113Y0091689D01*
X0197165Y0091686D01*
X0197217Y0091679D01*
X0197268Y0091668D01*
X0197318Y0091654D01*
X0197367Y0091635D01*
X0197414Y0091613D01*
X0197459Y0091588D01*
X0197503Y0091559D01*
X0197544Y0091527D01*
X0197583Y0091492D01*
X0197618Y0091454D01*
X0197651Y0091413D01*
X0197681Y0091371D01*
X0197707Y0091326D01*
X0197730Y0091279D01*
X0197749Y0091230D01*
X0197765Y0091180D01*
X0197777Y0091130D01*
X0197785Y0091078D01*
X0197789Y0091026D01*
X0197789Y0090974D01*
X0197785Y0090922D01*
X0197777Y0090870D01*
X0197765Y0090820D01*
X0197749Y0090770D01*
X0197730Y0090721D01*
X0197707Y0090674D01*
X0197681Y0090629D01*
X0197651Y0090587D01*
X0197618Y0090546D01*
X0197583Y0090508D01*
X0197544Y0090473D01*
X0197503Y0090441D01*
X0197459Y0090412D01*
X0197414Y0090387D01*
X0197367Y0090365D01*
X0197318Y0090346D01*
X0197268Y0090332D01*
X0197217Y0090321D01*
X0197165Y0090314D01*
X0197113Y0090311D01*
X0197061Y0090312D01*
X0197009Y0090317D01*
X0196958Y0090326D01*
X0196907Y0090339D01*
X0196858Y0090355D01*
X0196809Y0090375D01*
X0196763Y0090399D01*
X0196719Y0090426D01*
X0196676Y0090457D01*
X0196636Y0090490D01*
X0196599Y0090527D01*
X0196565Y0090566D01*
X0196534Y0090608D01*
X0196505Y0090652D01*
X0196481Y0090698D01*
X0196460Y0090745D01*
X0196442Y0090795D01*
X0196429Y0090845D01*
X0196419Y0090896D01*
X0196413Y0090948D01*
X0196411Y0091000D01*
X0200131Y0021000D02*
X0200133Y0021088D01*
X0200139Y0021176D01*
X0200149Y0021264D01*
X0200163Y0021352D01*
X0200180Y0021438D01*
X0200202Y0021524D01*
X0200227Y0021608D01*
X0200257Y0021692D01*
X0200289Y0021774D01*
X0200326Y0021854D01*
X0200366Y0021933D01*
X0200410Y0022010D01*
X0200457Y0022085D01*
X0200507Y0022157D01*
X0200561Y0022228D01*
X0200617Y0022295D01*
X0200677Y0022361D01*
X0200739Y0022423D01*
X0200805Y0022483D01*
X0200872Y0022539D01*
X0200943Y0022593D01*
X0201015Y0022643D01*
X0201090Y0022690D01*
X0201167Y0022734D01*
X0201246Y0022774D01*
X0201326Y0022811D01*
X0201408Y0022843D01*
X0201492Y0022873D01*
X0201576Y0022898D01*
X0201662Y0022920D01*
X0201748Y0022937D01*
X0201836Y0022951D01*
X0201924Y0022961D01*
X0202012Y0022967D01*
X0202100Y0022969D01*
X0202188Y0022967D01*
X0202276Y0022961D01*
X0202364Y0022951D01*
X0202452Y0022937D01*
X0202538Y0022920D01*
X0202624Y0022898D01*
X0202708Y0022873D01*
X0202792Y0022843D01*
X0202874Y0022811D01*
X0202954Y0022774D01*
X0203033Y0022734D01*
X0203110Y0022690D01*
X0203185Y0022643D01*
X0203257Y0022593D01*
X0203328Y0022539D01*
X0203395Y0022483D01*
X0203461Y0022423D01*
X0203523Y0022361D01*
X0203583Y0022295D01*
X0203639Y0022228D01*
X0203693Y0022157D01*
X0203743Y0022085D01*
X0203790Y0022010D01*
X0203834Y0021933D01*
X0203874Y0021854D01*
X0203911Y0021774D01*
X0203943Y0021692D01*
X0203973Y0021608D01*
X0203998Y0021524D01*
X0204020Y0021438D01*
X0204037Y0021352D01*
X0204051Y0021264D01*
X0204061Y0021176D01*
X0204067Y0021088D01*
X0204069Y0021000D01*
X0204067Y0020912D01*
X0204061Y0020824D01*
X0204051Y0020736D01*
X0204037Y0020648D01*
X0204020Y0020562D01*
X0203998Y0020476D01*
X0203973Y0020392D01*
X0203943Y0020308D01*
X0203911Y0020226D01*
X0203874Y0020146D01*
X0203834Y0020067D01*
X0203790Y0019990D01*
X0203743Y0019915D01*
X0203693Y0019843D01*
X0203639Y0019772D01*
X0203583Y0019705D01*
X0203523Y0019639D01*
X0203461Y0019577D01*
X0203395Y0019517D01*
X0203328Y0019461D01*
X0203257Y0019407D01*
X0203185Y0019357D01*
X0203110Y0019310D01*
X0203033Y0019266D01*
X0202954Y0019226D01*
X0202874Y0019189D01*
X0202792Y0019157D01*
X0202708Y0019127D01*
X0202624Y0019102D01*
X0202538Y0019080D01*
X0202452Y0019063D01*
X0202364Y0019049D01*
X0202276Y0019039D01*
X0202188Y0019033D01*
X0202100Y0019031D01*
X0202012Y0019033D01*
X0201924Y0019039D01*
X0201836Y0019049D01*
X0201748Y0019063D01*
X0201662Y0019080D01*
X0201576Y0019102D01*
X0201492Y0019127D01*
X0201408Y0019157D01*
X0201326Y0019189D01*
X0201246Y0019226D01*
X0201167Y0019266D01*
X0201090Y0019310D01*
X0201015Y0019357D01*
X0200943Y0019407D01*
X0200872Y0019461D01*
X0200805Y0019517D01*
X0200739Y0019577D01*
X0200677Y0019639D01*
X0200617Y0019705D01*
X0200561Y0019772D01*
X0200507Y0019843D01*
X0200457Y0019915D01*
X0200410Y0019990D01*
X0200366Y0020067D01*
X0200326Y0020146D01*
X0200289Y0020226D01*
X0200257Y0020308D01*
X0200227Y0020392D01*
X0200202Y0020476D01*
X0200180Y0020562D01*
X0200163Y0020648D01*
X0200149Y0020736D01*
X0200139Y0020824D01*
X0200133Y0020912D01*
X0200131Y0021000D01*
X0020131Y0161000D02*
X0020133Y0161088D01*
X0020139Y0161176D01*
X0020149Y0161264D01*
X0020163Y0161352D01*
X0020180Y0161438D01*
X0020202Y0161524D01*
X0020227Y0161608D01*
X0020257Y0161692D01*
X0020289Y0161774D01*
X0020326Y0161854D01*
X0020366Y0161933D01*
X0020410Y0162010D01*
X0020457Y0162085D01*
X0020507Y0162157D01*
X0020561Y0162228D01*
X0020617Y0162295D01*
X0020677Y0162361D01*
X0020739Y0162423D01*
X0020805Y0162483D01*
X0020872Y0162539D01*
X0020943Y0162593D01*
X0021015Y0162643D01*
X0021090Y0162690D01*
X0021167Y0162734D01*
X0021246Y0162774D01*
X0021326Y0162811D01*
X0021408Y0162843D01*
X0021492Y0162873D01*
X0021576Y0162898D01*
X0021662Y0162920D01*
X0021748Y0162937D01*
X0021836Y0162951D01*
X0021924Y0162961D01*
X0022012Y0162967D01*
X0022100Y0162969D01*
X0022188Y0162967D01*
X0022276Y0162961D01*
X0022364Y0162951D01*
X0022452Y0162937D01*
X0022538Y0162920D01*
X0022624Y0162898D01*
X0022708Y0162873D01*
X0022792Y0162843D01*
X0022874Y0162811D01*
X0022954Y0162774D01*
X0023033Y0162734D01*
X0023110Y0162690D01*
X0023185Y0162643D01*
X0023257Y0162593D01*
X0023328Y0162539D01*
X0023395Y0162483D01*
X0023461Y0162423D01*
X0023523Y0162361D01*
X0023583Y0162295D01*
X0023639Y0162228D01*
X0023693Y0162157D01*
X0023743Y0162085D01*
X0023790Y0162010D01*
X0023834Y0161933D01*
X0023874Y0161854D01*
X0023911Y0161774D01*
X0023943Y0161692D01*
X0023973Y0161608D01*
X0023998Y0161524D01*
X0024020Y0161438D01*
X0024037Y0161352D01*
X0024051Y0161264D01*
X0024061Y0161176D01*
X0024067Y0161088D01*
X0024069Y0161000D01*
X0024067Y0160912D01*
X0024061Y0160824D01*
X0024051Y0160736D01*
X0024037Y0160648D01*
X0024020Y0160562D01*
X0023998Y0160476D01*
X0023973Y0160392D01*
X0023943Y0160308D01*
X0023911Y0160226D01*
X0023874Y0160146D01*
X0023834Y0160067D01*
X0023790Y0159990D01*
X0023743Y0159915D01*
X0023693Y0159843D01*
X0023639Y0159772D01*
X0023583Y0159705D01*
X0023523Y0159639D01*
X0023461Y0159577D01*
X0023395Y0159517D01*
X0023328Y0159461D01*
X0023257Y0159407D01*
X0023185Y0159357D01*
X0023110Y0159310D01*
X0023033Y0159266D01*
X0022954Y0159226D01*
X0022874Y0159189D01*
X0022792Y0159157D01*
X0022708Y0159127D01*
X0022624Y0159102D01*
X0022538Y0159080D01*
X0022452Y0159063D01*
X0022364Y0159049D01*
X0022276Y0159039D01*
X0022188Y0159033D01*
X0022100Y0159031D01*
X0022012Y0159033D01*
X0021924Y0159039D01*
X0021836Y0159049D01*
X0021748Y0159063D01*
X0021662Y0159080D01*
X0021576Y0159102D01*
X0021492Y0159127D01*
X0021408Y0159157D01*
X0021326Y0159189D01*
X0021246Y0159226D01*
X0021167Y0159266D01*
X0021090Y0159310D01*
X0021015Y0159357D01*
X0020943Y0159407D01*
X0020872Y0159461D01*
X0020805Y0159517D01*
X0020739Y0159577D01*
X0020677Y0159639D01*
X0020617Y0159705D01*
X0020561Y0159772D01*
X0020507Y0159843D01*
X0020457Y0159915D01*
X0020410Y0159990D01*
X0020366Y0160067D01*
X0020326Y0160146D01*
X0020289Y0160226D01*
X0020257Y0160308D01*
X0020227Y0160392D01*
X0020202Y0160476D01*
X0020180Y0160562D01*
X0020163Y0160648D01*
X0020149Y0160736D01*
X0020139Y0160824D01*
X0020133Y0160912D01*
X0020131Y0161000D01*
X0136831Y0162300D02*
X0136833Y0162388D01*
X0136839Y0162476D01*
X0136849Y0162564D01*
X0136863Y0162652D01*
X0136880Y0162738D01*
X0136902Y0162824D01*
X0136927Y0162908D01*
X0136957Y0162992D01*
X0136989Y0163074D01*
X0137026Y0163154D01*
X0137066Y0163233D01*
X0137110Y0163310D01*
X0137157Y0163385D01*
X0137207Y0163457D01*
X0137261Y0163528D01*
X0137317Y0163595D01*
X0137377Y0163661D01*
X0137439Y0163723D01*
X0137505Y0163783D01*
X0137572Y0163839D01*
X0137643Y0163893D01*
X0137715Y0163943D01*
X0137790Y0163990D01*
X0137867Y0164034D01*
X0137946Y0164074D01*
X0138026Y0164111D01*
X0138108Y0164143D01*
X0138192Y0164173D01*
X0138276Y0164198D01*
X0138362Y0164220D01*
X0138448Y0164237D01*
X0138536Y0164251D01*
X0138624Y0164261D01*
X0138712Y0164267D01*
X0138800Y0164269D01*
X0138888Y0164267D01*
X0138976Y0164261D01*
X0139064Y0164251D01*
X0139152Y0164237D01*
X0139238Y0164220D01*
X0139324Y0164198D01*
X0139408Y0164173D01*
X0139492Y0164143D01*
X0139574Y0164111D01*
X0139654Y0164074D01*
X0139733Y0164034D01*
X0139810Y0163990D01*
X0139885Y0163943D01*
X0139957Y0163893D01*
X0140028Y0163839D01*
X0140095Y0163783D01*
X0140161Y0163723D01*
X0140223Y0163661D01*
X0140283Y0163595D01*
X0140339Y0163528D01*
X0140393Y0163457D01*
X0140443Y0163385D01*
X0140490Y0163310D01*
X0140534Y0163233D01*
X0140574Y0163154D01*
X0140611Y0163074D01*
X0140643Y0162992D01*
X0140673Y0162908D01*
X0140698Y0162824D01*
X0140720Y0162738D01*
X0140737Y0162652D01*
X0140751Y0162564D01*
X0140761Y0162476D01*
X0140767Y0162388D01*
X0140769Y0162300D01*
X0140767Y0162212D01*
X0140761Y0162124D01*
X0140751Y0162036D01*
X0140737Y0161948D01*
X0140720Y0161862D01*
X0140698Y0161776D01*
X0140673Y0161692D01*
X0140643Y0161608D01*
X0140611Y0161526D01*
X0140574Y0161446D01*
X0140534Y0161367D01*
X0140490Y0161290D01*
X0140443Y0161215D01*
X0140393Y0161143D01*
X0140339Y0161072D01*
X0140283Y0161005D01*
X0140223Y0160939D01*
X0140161Y0160877D01*
X0140095Y0160817D01*
X0140028Y0160761D01*
X0139957Y0160707D01*
X0139885Y0160657D01*
X0139810Y0160610D01*
X0139733Y0160566D01*
X0139654Y0160526D01*
X0139574Y0160489D01*
X0139492Y0160457D01*
X0139408Y0160427D01*
X0139324Y0160402D01*
X0139238Y0160380D01*
X0139152Y0160363D01*
X0139064Y0160349D01*
X0138976Y0160339D01*
X0138888Y0160333D01*
X0138800Y0160331D01*
X0138712Y0160333D01*
X0138624Y0160339D01*
X0138536Y0160349D01*
X0138448Y0160363D01*
X0138362Y0160380D01*
X0138276Y0160402D01*
X0138192Y0160427D01*
X0138108Y0160457D01*
X0138026Y0160489D01*
X0137946Y0160526D01*
X0137867Y0160566D01*
X0137790Y0160610D01*
X0137715Y0160657D01*
X0137643Y0160707D01*
X0137572Y0160761D01*
X0137505Y0160817D01*
X0137439Y0160877D01*
X0137377Y0160939D01*
X0137317Y0161005D01*
X0137261Y0161072D01*
X0137207Y0161143D01*
X0137157Y0161215D01*
X0137110Y0161290D01*
X0137066Y0161367D01*
X0137026Y0161446D01*
X0136989Y0161526D01*
X0136957Y0161608D01*
X0136927Y0161692D01*
X0136902Y0161776D01*
X0136880Y0161862D01*
X0136863Y0161948D01*
X0136849Y0162036D01*
X0136839Y0162124D01*
X0136833Y0162212D01*
X0136831Y0162300D01*
D11*
X0167100Y0143500D02*
X0167100Y0128500D01*
X0171100Y0128500D02*
X0171100Y0136000D01*
X0178100Y0136000D01*
X0178100Y0128500D01*
X0171100Y0128500D01*
X0167257Y0136000D02*
X0167260Y0136242D01*
X0167269Y0136483D01*
X0167284Y0136724D01*
X0167304Y0136965D01*
X0167331Y0137205D01*
X0167364Y0137444D01*
X0167402Y0137683D01*
X0167446Y0137920D01*
X0167496Y0138157D01*
X0167552Y0138392D01*
X0167614Y0138625D01*
X0167681Y0138857D01*
X0167754Y0139088D01*
X0167832Y0139316D01*
X0167917Y0139542D01*
X0168006Y0139767D01*
X0168101Y0139989D01*
X0168202Y0140208D01*
X0168308Y0140426D01*
X0168419Y0140640D01*
X0168536Y0140852D01*
X0168657Y0141060D01*
X0168784Y0141266D01*
X0168916Y0141468D01*
X0169053Y0141668D01*
X0169194Y0141863D01*
X0169340Y0142056D01*
X0169491Y0142244D01*
X0169647Y0142429D01*
X0169807Y0142610D01*
X0169971Y0142787D01*
X0170140Y0142960D01*
X0170313Y0143129D01*
X0170490Y0143293D01*
X0170671Y0143453D01*
X0170856Y0143609D01*
X0171044Y0143760D01*
X0171237Y0143906D01*
X0171432Y0144047D01*
X0171632Y0144184D01*
X0171834Y0144316D01*
X0172040Y0144443D01*
X0172248Y0144564D01*
X0172460Y0144681D01*
X0172674Y0144792D01*
X0172892Y0144898D01*
X0173111Y0144999D01*
X0173333Y0145094D01*
X0173558Y0145183D01*
X0173784Y0145268D01*
X0174012Y0145346D01*
X0174243Y0145419D01*
X0174475Y0145486D01*
X0174708Y0145548D01*
X0174943Y0145604D01*
X0175180Y0145654D01*
X0175417Y0145698D01*
X0175656Y0145736D01*
X0175895Y0145769D01*
X0176135Y0145796D01*
X0176376Y0145816D01*
X0176617Y0145831D01*
X0176858Y0145840D01*
X0177100Y0145843D01*
X0177342Y0145840D01*
X0177583Y0145831D01*
X0177824Y0145816D01*
X0178065Y0145796D01*
X0178305Y0145769D01*
X0178544Y0145736D01*
X0178783Y0145698D01*
X0179020Y0145654D01*
X0179257Y0145604D01*
X0179492Y0145548D01*
X0179725Y0145486D01*
X0179957Y0145419D01*
X0180188Y0145346D01*
X0180416Y0145268D01*
X0180642Y0145183D01*
X0180867Y0145094D01*
X0181089Y0144999D01*
X0181308Y0144898D01*
X0181526Y0144792D01*
X0181740Y0144681D01*
X0181952Y0144564D01*
X0182160Y0144443D01*
X0182366Y0144316D01*
X0182568Y0144184D01*
X0182768Y0144047D01*
X0182963Y0143906D01*
X0183156Y0143760D01*
X0183344Y0143609D01*
X0183529Y0143453D01*
X0183710Y0143293D01*
X0183887Y0143129D01*
X0184060Y0142960D01*
X0184229Y0142787D01*
X0184393Y0142610D01*
X0184553Y0142429D01*
X0184709Y0142244D01*
X0184860Y0142056D01*
X0185006Y0141863D01*
X0185147Y0141668D01*
X0185284Y0141468D01*
X0185416Y0141266D01*
X0185543Y0141060D01*
X0185664Y0140852D01*
X0185781Y0140640D01*
X0185892Y0140426D01*
X0185998Y0140208D01*
X0186099Y0139989D01*
X0186194Y0139767D01*
X0186283Y0139542D01*
X0186368Y0139316D01*
X0186446Y0139088D01*
X0186519Y0138857D01*
X0186586Y0138625D01*
X0186648Y0138392D01*
X0186704Y0138157D01*
X0186754Y0137920D01*
X0186798Y0137683D01*
X0186836Y0137444D01*
X0186869Y0137205D01*
X0186896Y0136965D01*
X0186916Y0136724D01*
X0186931Y0136483D01*
X0186940Y0136242D01*
X0186943Y0136000D01*
X0186940Y0135758D01*
X0186931Y0135517D01*
X0186916Y0135276D01*
X0186896Y0135035D01*
X0186869Y0134795D01*
X0186836Y0134556D01*
X0186798Y0134317D01*
X0186754Y0134080D01*
X0186704Y0133843D01*
X0186648Y0133608D01*
X0186586Y0133375D01*
X0186519Y0133143D01*
X0186446Y0132912D01*
X0186368Y0132684D01*
X0186283Y0132458D01*
X0186194Y0132233D01*
X0186099Y0132011D01*
X0185998Y0131792D01*
X0185892Y0131574D01*
X0185781Y0131360D01*
X0185664Y0131148D01*
X0185543Y0130940D01*
X0185416Y0130734D01*
X0185284Y0130532D01*
X0185147Y0130332D01*
X0185006Y0130137D01*
X0184860Y0129944D01*
X0184709Y0129756D01*
X0184553Y0129571D01*
X0184393Y0129390D01*
X0184229Y0129213D01*
X0184060Y0129040D01*
X0183887Y0128871D01*
X0183710Y0128707D01*
X0183529Y0128547D01*
X0183344Y0128391D01*
X0183156Y0128240D01*
X0182963Y0128094D01*
X0182768Y0127953D01*
X0182568Y0127816D01*
X0182366Y0127684D01*
X0182160Y0127557D01*
X0181952Y0127436D01*
X0181740Y0127319D01*
X0181526Y0127208D01*
X0181308Y0127102D01*
X0181089Y0127001D01*
X0180867Y0126906D01*
X0180642Y0126817D01*
X0180416Y0126732D01*
X0180188Y0126654D01*
X0179957Y0126581D01*
X0179725Y0126514D01*
X0179492Y0126452D01*
X0179257Y0126396D01*
X0179020Y0126346D01*
X0178783Y0126302D01*
X0178544Y0126264D01*
X0178305Y0126231D01*
X0178065Y0126204D01*
X0177824Y0126184D01*
X0177583Y0126169D01*
X0177342Y0126160D01*
X0177100Y0126157D01*
X0176858Y0126160D01*
X0176617Y0126169D01*
X0176376Y0126184D01*
X0176135Y0126204D01*
X0175895Y0126231D01*
X0175656Y0126264D01*
X0175417Y0126302D01*
X0175180Y0126346D01*
X0174943Y0126396D01*
X0174708Y0126452D01*
X0174475Y0126514D01*
X0174243Y0126581D01*
X0174012Y0126654D01*
X0173784Y0126732D01*
X0173558Y0126817D01*
X0173333Y0126906D01*
X0173111Y0127001D01*
X0172892Y0127102D01*
X0172674Y0127208D01*
X0172460Y0127319D01*
X0172248Y0127436D01*
X0172040Y0127557D01*
X0171834Y0127684D01*
X0171632Y0127816D01*
X0171432Y0127953D01*
X0171237Y0128094D01*
X0171044Y0128240D01*
X0170856Y0128391D01*
X0170671Y0128547D01*
X0170490Y0128707D01*
X0170313Y0128871D01*
X0170140Y0129040D01*
X0169971Y0129213D01*
X0169807Y0129390D01*
X0169647Y0129571D01*
X0169491Y0129756D01*
X0169340Y0129944D01*
X0169194Y0130137D01*
X0169053Y0130332D01*
X0168916Y0130532D01*
X0168784Y0130734D01*
X0168657Y0130940D01*
X0168536Y0131148D01*
X0168419Y0131360D01*
X0168308Y0131574D01*
X0168202Y0131792D01*
X0168101Y0132011D01*
X0168006Y0132233D01*
X0167917Y0132458D01*
X0167832Y0132684D01*
X0167754Y0132912D01*
X0167681Y0133143D01*
X0167614Y0133375D01*
X0167552Y0133608D01*
X0167496Y0133843D01*
X0167446Y0134080D01*
X0167402Y0134317D01*
X0167364Y0134556D01*
X0167331Y0134795D01*
X0167304Y0135035D01*
X0167284Y0135276D01*
X0167269Y0135517D01*
X0167260Y0135758D01*
X0167257Y0136000D01*
X0167100Y0128500D02*
X0167287Y0128257D01*
X0167479Y0128019D01*
X0167678Y0127786D01*
X0167882Y0127558D01*
X0168091Y0127335D01*
X0168306Y0127117D01*
X0168526Y0126904D01*
X0168751Y0126697D01*
X0168982Y0126495D01*
X0169217Y0126299D01*
X0169457Y0126109D01*
X0169701Y0125925D01*
X0169950Y0125747D01*
X0170204Y0125575D01*
X0170461Y0125409D01*
X0170722Y0125249D01*
X0170987Y0125096D01*
X0171256Y0124950D01*
X0171529Y0124810D01*
X0171804Y0124677D01*
X0172083Y0124551D01*
X0172365Y0124431D01*
X0172650Y0124319D01*
X0172937Y0124214D01*
X0173227Y0124115D01*
X0173519Y0124024D01*
X0173814Y0123940D01*
X0174110Y0123863D01*
X0174408Y0123793D01*
X0174708Y0123731D01*
X0175009Y0123676D01*
X0175311Y0123629D01*
X0175615Y0123589D01*
X0175919Y0123556D01*
X0176224Y0123531D01*
X0176530Y0123513D01*
X0176836Y0123503D01*
X0177142Y0123500D01*
X0177448Y0123505D01*
X0177754Y0123517D01*
X0178060Y0123537D01*
X0178364Y0123564D01*
X0178669Y0123599D01*
X0178972Y0123641D01*
X0179274Y0123690D01*
X0179575Y0123747D01*
X0179874Y0123812D01*
X0180172Y0123883D01*
X0180467Y0123962D01*
X0180761Y0124048D01*
X0181053Y0124141D01*
X0181342Y0124242D01*
X0181629Y0124349D01*
X0181913Y0124464D01*
X0182194Y0124585D01*
X0182472Y0124713D01*
X0182747Y0124848D01*
X0183018Y0124990D01*
X0183286Y0125138D01*
X0183550Y0125293D01*
X0183810Y0125454D01*
X0184066Y0125621D01*
X0184319Y0125795D01*
X0184566Y0125975D01*
X0184810Y0126161D01*
X0185048Y0126352D01*
X0185282Y0126550D01*
X0185511Y0126753D01*
X0185735Y0126962D01*
X0185954Y0127176D01*
X0186167Y0127396D01*
X0186375Y0127620D01*
X0186578Y0127850D01*
X0186774Y0128084D01*
X0186965Y0128324D01*
X0187150Y0128567D01*
X0187329Y0128816D01*
X0187502Y0129068D01*
X0187669Y0129325D01*
X0187829Y0129586D01*
X0187983Y0129851D01*
X0188130Y0130119D01*
X0188271Y0130391D01*
X0188405Y0130666D01*
X0188532Y0130945D01*
X0188653Y0131226D01*
X0188766Y0131511D01*
X0188872Y0131798D01*
X0188972Y0132087D01*
X0189064Y0132379D01*
X0189149Y0132673D01*
X0189227Y0132969D01*
X0189298Y0133267D01*
X0189361Y0133567D01*
X0189417Y0133868D01*
X0189465Y0134170D01*
X0189506Y0134473D01*
X0189540Y0134777D01*
X0189566Y0135082D01*
X0189585Y0135388D01*
X0189596Y0135694D01*
X0189600Y0136000D01*
X0189596Y0136306D01*
X0189585Y0136612D01*
X0189566Y0136918D01*
X0189540Y0137223D01*
X0189506Y0137527D01*
X0189465Y0137830D01*
X0189417Y0138132D01*
X0189361Y0138433D01*
X0189298Y0138733D01*
X0189227Y0139031D01*
X0189149Y0139327D01*
X0189064Y0139621D01*
X0188972Y0139913D01*
X0188872Y0140202D01*
X0188766Y0140489D01*
X0188653Y0140774D01*
X0188532Y0141055D01*
X0188405Y0141334D01*
X0188271Y0141609D01*
X0188130Y0141881D01*
X0187983Y0142149D01*
X0187829Y0142414D01*
X0187669Y0142675D01*
X0187502Y0142932D01*
X0187329Y0143184D01*
X0187150Y0143433D01*
X0186965Y0143676D01*
X0186774Y0143916D01*
X0186578Y0144150D01*
X0186375Y0144380D01*
X0186167Y0144604D01*
X0185954Y0144824D01*
X0185735Y0145038D01*
X0185511Y0145247D01*
X0185282Y0145450D01*
X0185048Y0145648D01*
X0184810Y0145839D01*
X0184566Y0146025D01*
X0184319Y0146205D01*
X0184066Y0146379D01*
X0183810Y0146546D01*
X0183550Y0146707D01*
X0183286Y0146862D01*
X0183018Y0147010D01*
X0182747Y0147152D01*
X0182472Y0147287D01*
X0182194Y0147415D01*
X0181913Y0147536D01*
X0181629Y0147651D01*
X0181342Y0147758D01*
X0181053Y0147859D01*
X0180761Y0147952D01*
X0180467Y0148038D01*
X0180172Y0148117D01*
X0179874Y0148188D01*
X0179575Y0148253D01*
X0179274Y0148310D01*
X0178972Y0148359D01*
X0178669Y0148401D01*
X0178364Y0148436D01*
X0178060Y0148463D01*
X0177754Y0148483D01*
X0177448Y0148495D01*
X0177142Y0148500D01*
X0176836Y0148497D01*
X0176530Y0148487D01*
X0176224Y0148469D01*
X0175919Y0148444D01*
X0175615Y0148411D01*
X0175311Y0148371D01*
X0175009Y0148324D01*
X0174708Y0148269D01*
X0174408Y0148207D01*
X0174110Y0148137D01*
X0173814Y0148060D01*
X0173519Y0147976D01*
X0173227Y0147885D01*
X0172937Y0147786D01*
X0172650Y0147681D01*
X0172365Y0147569D01*
X0172083Y0147449D01*
X0171804Y0147323D01*
X0171529Y0147190D01*
X0171256Y0147050D01*
X0170987Y0146904D01*
X0170722Y0146751D01*
X0170461Y0146591D01*
X0170204Y0146425D01*
X0169950Y0146253D01*
X0169701Y0146075D01*
X0169457Y0145891D01*
X0169217Y0145701D01*
X0168982Y0145505D01*
X0168751Y0145303D01*
X0168526Y0145096D01*
X0168306Y0144883D01*
X0168091Y0144665D01*
X0167882Y0144442D01*
X0167678Y0144214D01*
X0167479Y0143981D01*
X0167287Y0143743D01*
X0167100Y0143500D01*
X0218081Y0109828D02*
X0218083Y0109867D01*
X0218088Y0109906D01*
X0218097Y0109943D01*
X0218109Y0109980D01*
X0218125Y0110016D01*
X0218144Y0110050D01*
X0218166Y0110082D01*
X0218191Y0110112D01*
X0218219Y0110140D01*
X0218249Y0110165D01*
X0218281Y0110187D01*
X0218315Y0110206D01*
X0218351Y0110222D01*
X0218388Y0110234D01*
X0218425Y0110243D01*
X0218464Y0110248D01*
X0218503Y0110250D01*
X0218081Y0109828D02*
X0218083Y0109788D01*
X0218089Y0109747D01*
X0218098Y0109708D01*
X0218111Y0109670D01*
X0218128Y0109633D01*
X0218148Y0109598D01*
X0218171Y0109565D01*
X0218198Y0109534D01*
X0218227Y0109506D01*
X0218258Y0109481D01*
X0218292Y0109458D01*
X0218873Y0109142D01*
X0218662Y0108350D02*
X0218603Y0108352D01*
X0218545Y0108358D01*
X0218487Y0108367D01*
X0218430Y0108381D01*
X0218374Y0108398D01*
X0218319Y0108419D01*
X0218266Y0108443D01*
X0218214Y0108471D01*
X0218164Y0108502D01*
X0218117Y0108536D01*
X0218071Y0108574D01*
X0218029Y0108614D01*
X0218873Y0109142D02*
X0218907Y0109119D01*
X0218938Y0109094D01*
X0218967Y0109066D01*
X0218994Y0109035D01*
X0219017Y0109002D01*
X0219037Y0108967D01*
X0219054Y0108930D01*
X0219067Y0108892D01*
X0219076Y0108853D01*
X0219082Y0108812D01*
X0219084Y0108772D01*
X0219082Y0108733D01*
X0219077Y0108694D01*
X0219068Y0108657D01*
X0219056Y0108620D01*
X0219040Y0108584D01*
X0219021Y0108550D01*
X0218999Y0108518D01*
X0218974Y0108488D01*
X0218946Y0108460D01*
X0218916Y0108435D01*
X0218884Y0108413D01*
X0218850Y0108394D01*
X0218814Y0108378D01*
X0218777Y0108366D01*
X0218740Y0108357D01*
X0218701Y0108352D01*
X0218662Y0108350D01*
X0218978Y0110092D02*
X0218936Y0110121D01*
X0218893Y0110147D01*
X0218848Y0110171D01*
X0218801Y0110192D01*
X0218753Y0110209D01*
X0218705Y0110224D01*
X0218655Y0110235D01*
X0218605Y0110243D01*
X0218554Y0110248D01*
X0218503Y0110250D01*
X0220116Y0109828D02*
X0220644Y0110250D01*
X0220644Y0108350D01*
X0220116Y0108350D02*
X0221172Y0108350D01*
X0232350Y0102000D02*
X0232350Y0100000D01*
X0232352Y0099931D01*
X0232358Y0099862D01*
X0232367Y0099794D01*
X0232380Y0099727D01*
X0232397Y0099660D01*
X0232418Y0099594D01*
X0232442Y0099530D01*
X0232470Y0099467D01*
X0232501Y0099405D01*
X0232535Y0099345D01*
X0232573Y0099288D01*
X0232614Y0099232D01*
X0232657Y0099179D01*
X0232704Y0099128D01*
X0232753Y0099080D01*
X0232805Y0099035D01*
X0232860Y0098993D01*
X0232916Y0098954D01*
X0232975Y0098917D01*
X0233036Y0098885D01*
X0233098Y0098855D01*
X0233162Y0098829D01*
X0233227Y0098807D01*
X0233293Y0098788D01*
X0233360Y0098773D01*
X0233428Y0098762D01*
X0233497Y0098754D01*
X0233566Y0098750D01*
X0233634Y0098750D01*
X0233703Y0098754D01*
X0233772Y0098762D01*
X0233840Y0098773D01*
X0233907Y0098788D01*
X0233973Y0098807D01*
X0234038Y0098829D01*
X0234102Y0098855D01*
X0234164Y0098885D01*
X0234225Y0098917D01*
X0234284Y0098954D01*
X0234340Y0098993D01*
X0234395Y0099035D01*
X0234447Y0099080D01*
X0234496Y0099128D01*
X0234543Y0099179D01*
X0234586Y0099232D01*
X0234627Y0099288D01*
X0234665Y0099345D01*
X0234699Y0099405D01*
X0234730Y0099467D01*
X0234758Y0099530D01*
X0234782Y0099594D01*
X0234803Y0099660D01*
X0234820Y0099727D01*
X0234833Y0099794D01*
X0234842Y0099862D01*
X0234848Y0099931D01*
X0234850Y0100000D01*
X0234850Y0102000D01*
X0234848Y0102069D01*
X0234842Y0102138D01*
X0234833Y0102206D01*
X0234820Y0102273D01*
X0234803Y0102340D01*
X0234782Y0102406D01*
X0234758Y0102470D01*
X0234730Y0102533D01*
X0234699Y0102595D01*
X0234665Y0102655D01*
X0234627Y0102712D01*
X0234586Y0102768D01*
X0234543Y0102821D01*
X0234496Y0102872D01*
X0234447Y0102920D01*
X0234395Y0102965D01*
X0234340Y0103007D01*
X0234284Y0103046D01*
X0234225Y0103083D01*
X0234164Y0103115D01*
X0234102Y0103145D01*
X0234038Y0103171D01*
X0233973Y0103193D01*
X0233907Y0103212D01*
X0233840Y0103227D01*
X0233772Y0103238D01*
X0233703Y0103246D01*
X0233634Y0103250D01*
X0233566Y0103250D01*
X0233497Y0103246D01*
X0233428Y0103238D01*
X0233360Y0103227D01*
X0233293Y0103212D01*
X0233227Y0103193D01*
X0233162Y0103171D01*
X0233098Y0103145D01*
X0233036Y0103115D01*
X0232975Y0103083D01*
X0232916Y0103046D01*
X0232860Y0103007D01*
X0232805Y0102965D01*
X0232753Y0102920D01*
X0232704Y0102872D01*
X0232657Y0102821D01*
X0232614Y0102768D01*
X0232573Y0102712D01*
X0232535Y0102655D01*
X0232501Y0102595D01*
X0232470Y0102533D01*
X0232442Y0102470D01*
X0232418Y0102406D01*
X0232397Y0102340D01*
X0232380Y0102273D01*
X0232367Y0102206D01*
X0232358Y0102138D01*
X0232352Y0102069D01*
X0232350Y0102000D01*
X0237010Y0103250D02*
X0237010Y0098750D01*
X0239010Y0098750D01*
X0240910Y0098750D02*
X0240910Y0103250D01*
X0242910Y0103250D01*
X0244800Y0103250D02*
X0246050Y0103250D01*
X0246118Y0103248D01*
X0246185Y0103243D01*
X0246252Y0103234D01*
X0246319Y0103221D01*
X0246384Y0103204D01*
X0246449Y0103185D01*
X0246513Y0103161D01*
X0246575Y0103134D01*
X0246636Y0103104D01*
X0246694Y0103071D01*
X0246751Y0103035D01*
X0246806Y0102995D01*
X0246859Y0102953D01*
X0246910Y0102907D01*
X0246957Y0102860D01*
X0247003Y0102809D01*
X0247045Y0102756D01*
X0247085Y0102701D01*
X0247121Y0102644D01*
X0247154Y0102586D01*
X0247184Y0102525D01*
X0247211Y0102463D01*
X0247235Y0102399D01*
X0247254Y0102334D01*
X0247271Y0102269D01*
X0247284Y0102202D01*
X0247293Y0102135D01*
X0247298Y0102068D01*
X0247300Y0102000D01*
X0247300Y0100000D01*
X0247298Y0099932D01*
X0247293Y0099865D01*
X0247284Y0099798D01*
X0247271Y0099731D01*
X0247254Y0099666D01*
X0247235Y0099601D01*
X0247211Y0099537D01*
X0247184Y0099475D01*
X0247154Y0099414D01*
X0247121Y0099356D01*
X0247085Y0099299D01*
X0247045Y0099244D01*
X0247003Y0099191D01*
X0246957Y0099140D01*
X0246910Y0099093D01*
X0246859Y0099047D01*
X0246806Y0099005D01*
X0246751Y0098965D01*
X0246694Y0098929D01*
X0246636Y0098896D01*
X0246575Y0098866D01*
X0246513Y0098839D01*
X0246449Y0098815D01*
X0246384Y0098796D01*
X0246319Y0098779D01*
X0246252Y0098766D01*
X0246185Y0098757D01*
X0246118Y0098752D01*
X0246050Y0098750D01*
X0244800Y0098750D01*
X0244800Y0103250D01*
X0242410Y0101250D02*
X0240910Y0101250D01*
X0240910Y0098750D02*
X0242910Y0098750D01*
X0209600Y0066000D02*
X0194600Y0066000D01*
X0194600Y0062000D02*
X0202100Y0062000D01*
X0202100Y0055000D01*
X0194600Y0055000D01*
X0194600Y0062000D01*
X0192257Y0056000D02*
X0192260Y0056242D01*
X0192269Y0056483D01*
X0192284Y0056724D01*
X0192304Y0056965D01*
X0192331Y0057205D01*
X0192364Y0057444D01*
X0192402Y0057683D01*
X0192446Y0057920D01*
X0192496Y0058157D01*
X0192552Y0058392D01*
X0192614Y0058625D01*
X0192681Y0058857D01*
X0192754Y0059088D01*
X0192832Y0059316D01*
X0192917Y0059542D01*
X0193006Y0059767D01*
X0193101Y0059989D01*
X0193202Y0060208D01*
X0193308Y0060426D01*
X0193419Y0060640D01*
X0193536Y0060852D01*
X0193657Y0061060D01*
X0193784Y0061266D01*
X0193916Y0061468D01*
X0194053Y0061668D01*
X0194194Y0061863D01*
X0194340Y0062056D01*
X0194491Y0062244D01*
X0194647Y0062429D01*
X0194807Y0062610D01*
X0194971Y0062787D01*
X0195140Y0062960D01*
X0195313Y0063129D01*
X0195490Y0063293D01*
X0195671Y0063453D01*
X0195856Y0063609D01*
X0196044Y0063760D01*
X0196237Y0063906D01*
X0196432Y0064047D01*
X0196632Y0064184D01*
X0196834Y0064316D01*
X0197040Y0064443D01*
X0197248Y0064564D01*
X0197460Y0064681D01*
X0197674Y0064792D01*
X0197892Y0064898D01*
X0198111Y0064999D01*
X0198333Y0065094D01*
X0198558Y0065183D01*
X0198784Y0065268D01*
X0199012Y0065346D01*
X0199243Y0065419D01*
X0199475Y0065486D01*
X0199708Y0065548D01*
X0199943Y0065604D01*
X0200180Y0065654D01*
X0200417Y0065698D01*
X0200656Y0065736D01*
X0200895Y0065769D01*
X0201135Y0065796D01*
X0201376Y0065816D01*
X0201617Y0065831D01*
X0201858Y0065840D01*
X0202100Y0065843D01*
X0202342Y0065840D01*
X0202583Y0065831D01*
X0202824Y0065816D01*
X0203065Y0065796D01*
X0203305Y0065769D01*
X0203544Y0065736D01*
X0203783Y0065698D01*
X0204020Y0065654D01*
X0204257Y0065604D01*
X0204492Y0065548D01*
X0204725Y0065486D01*
X0204957Y0065419D01*
X0205188Y0065346D01*
X0205416Y0065268D01*
X0205642Y0065183D01*
X0205867Y0065094D01*
X0206089Y0064999D01*
X0206308Y0064898D01*
X0206526Y0064792D01*
X0206740Y0064681D01*
X0206952Y0064564D01*
X0207160Y0064443D01*
X0207366Y0064316D01*
X0207568Y0064184D01*
X0207768Y0064047D01*
X0207963Y0063906D01*
X0208156Y0063760D01*
X0208344Y0063609D01*
X0208529Y0063453D01*
X0208710Y0063293D01*
X0208887Y0063129D01*
X0209060Y0062960D01*
X0209229Y0062787D01*
X0209393Y0062610D01*
X0209553Y0062429D01*
X0209709Y0062244D01*
X0209860Y0062056D01*
X0210006Y0061863D01*
X0210147Y0061668D01*
X0210284Y0061468D01*
X0210416Y0061266D01*
X0210543Y0061060D01*
X0210664Y0060852D01*
X0210781Y0060640D01*
X0210892Y0060426D01*
X0210998Y0060208D01*
X0211099Y0059989D01*
X0211194Y0059767D01*
X0211283Y0059542D01*
X0211368Y0059316D01*
X0211446Y0059088D01*
X0211519Y0058857D01*
X0211586Y0058625D01*
X0211648Y0058392D01*
X0211704Y0058157D01*
X0211754Y0057920D01*
X0211798Y0057683D01*
X0211836Y0057444D01*
X0211869Y0057205D01*
X0211896Y0056965D01*
X0211916Y0056724D01*
X0211931Y0056483D01*
X0211940Y0056242D01*
X0211943Y0056000D01*
X0211940Y0055758D01*
X0211931Y0055517D01*
X0211916Y0055276D01*
X0211896Y0055035D01*
X0211869Y0054795D01*
X0211836Y0054556D01*
X0211798Y0054317D01*
X0211754Y0054080D01*
X0211704Y0053843D01*
X0211648Y0053608D01*
X0211586Y0053375D01*
X0211519Y0053143D01*
X0211446Y0052912D01*
X0211368Y0052684D01*
X0211283Y0052458D01*
X0211194Y0052233D01*
X0211099Y0052011D01*
X0210998Y0051792D01*
X0210892Y0051574D01*
X0210781Y0051360D01*
X0210664Y0051148D01*
X0210543Y0050940D01*
X0210416Y0050734D01*
X0210284Y0050532D01*
X0210147Y0050332D01*
X0210006Y0050137D01*
X0209860Y0049944D01*
X0209709Y0049756D01*
X0209553Y0049571D01*
X0209393Y0049390D01*
X0209229Y0049213D01*
X0209060Y0049040D01*
X0208887Y0048871D01*
X0208710Y0048707D01*
X0208529Y0048547D01*
X0208344Y0048391D01*
X0208156Y0048240D01*
X0207963Y0048094D01*
X0207768Y0047953D01*
X0207568Y0047816D01*
X0207366Y0047684D01*
X0207160Y0047557D01*
X0206952Y0047436D01*
X0206740Y0047319D01*
X0206526Y0047208D01*
X0206308Y0047102D01*
X0206089Y0047001D01*
X0205867Y0046906D01*
X0205642Y0046817D01*
X0205416Y0046732D01*
X0205188Y0046654D01*
X0204957Y0046581D01*
X0204725Y0046514D01*
X0204492Y0046452D01*
X0204257Y0046396D01*
X0204020Y0046346D01*
X0203783Y0046302D01*
X0203544Y0046264D01*
X0203305Y0046231D01*
X0203065Y0046204D01*
X0202824Y0046184D01*
X0202583Y0046169D01*
X0202342Y0046160D01*
X0202100Y0046157D01*
X0201858Y0046160D01*
X0201617Y0046169D01*
X0201376Y0046184D01*
X0201135Y0046204D01*
X0200895Y0046231D01*
X0200656Y0046264D01*
X0200417Y0046302D01*
X0200180Y0046346D01*
X0199943Y0046396D01*
X0199708Y0046452D01*
X0199475Y0046514D01*
X0199243Y0046581D01*
X0199012Y0046654D01*
X0198784Y0046732D01*
X0198558Y0046817D01*
X0198333Y0046906D01*
X0198111Y0047001D01*
X0197892Y0047102D01*
X0197674Y0047208D01*
X0197460Y0047319D01*
X0197248Y0047436D01*
X0197040Y0047557D01*
X0196834Y0047684D01*
X0196632Y0047816D01*
X0196432Y0047953D01*
X0196237Y0048094D01*
X0196044Y0048240D01*
X0195856Y0048391D01*
X0195671Y0048547D01*
X0195490Y0048707D01*
X0195313Y0048871D01*
X0195140Y0049040D01*
X0194971Y0049213D01*
X0194807Y0049390D01*
X0194647Y0049571D01*
X0194491Y0049756D01*
X0194340Y0049944D01*
X0194194Y0050137D01*
X0194053Y0050332D01*
X0193916Y0050532D01*
X0193784Y0050734D01*
X0193657Y0050940D01*
X0193536Y0051148D01*
X0193419Y0051360D01*
X0193308Y0051574D01*
X0193202Y0051792D01*
X0193101Y0052011D01*
X0193006Y0052233D01*
X0192917Y0052458D01*
X0192832Y0052684D01*
X0192754Y0052912D01*
X0192681Y0053143D01*
X0192614Y0053375D01*
X0192552Y0053608D01*
X0192496Y0053843D01*
X0192446Y0054080D01*
X0192402Y0054317D01*
X0192364Y0054556D01*
X0192331Y0054795D01*
X0192304Y0055035D01*
X0192284Y0055276D01*
X0192269Y0055517D01*
X0192260Y0055758D01*
X0192257Y0056000D01*
X0194600Y0066000D02*
X0194357Y0065813D01*
X0194119Y0065621D01*
X0193886Y0065422D01*
X0193658Y0065218D01*
X0193435Y0065009D01*
X0193217Y0064794D01*
X0193004Y0064574D01*
X0192797Y0064349D01*
X0192595Y0064118D01*
X0192399Y0063883D01*
X0192209Y0063643D01*
X0192025Y0063399D01*
X0191847Y0063150D01*
X0191675Y0062896D01*
X0191509Y0062639D01*
X0191349Y0062378D01*
X0191196Y0062113D01*
X0191050Y0061844D01*
X0190910Y0061571D01*
X0190777Y0061296D01*
X0190651Y0061017D01*
X0190531Y0060735D01*
X0190419Y0060450D01*
X0190314Y0060163D01*
X0190215Y0059873D01*
X0190124Y0059581D01*
X0190040Y0059286D01*
X0189963Y0058990D01*
X0189893Y0058692D01*
X0189831Y0058392D01*
X0189776Y0058091D01*
X0189729Y0057789D01*
X0189689Y0057485D01*
X0189656Y0057181D01*
X0189631Y0056876D01*
X0189613Y0056570D01*
X0189603Y0056264D01*
X0189600Y0055958D01*
X0189605Y0055652D01*
X0189617Y0055346D01*
X0189637Y0055040D01*
X0189664Y0054736D01*
X0189699Y0054431D01*
X0189741Y0054128D01*
X0189790Y0053826D01*
X0189847Y0053525D01*
X0189912Y0053226D01*
X0189983Y0052928D01*
X0190062Y0052633D01*
X0190148Y0052339D01*
X0190241Y0052047D01*
X0190342Y0051758D01*
X0190449Y0051471D01*
X0190564Y0051187D01*
X0190685Y0050906D01*
X0190813Y0050628D01*
X0190948Y0050353D01*
X0191090Y0050082D01*
X0191238Y0049814D01*
X0191393Y0049550D01*
X0191554Y0049290D01*
X0191721Y0049034D01*
X0191895Y0048781D01*
X0192075Y0048534D01*
X0192261Y0048290D01*
X0192452Y0048052D01*
X0192650Y0047818D01*
X0192853Y0047589D01*
X0193062Y0047365D01*
X0193276Y0047146D01*
X0193496Y0046933D01*
X0193720Y0046725D01*
X0193950Y0046522D01*
X0194184Y0046326D01*
X0194424Y0046135D01*
X0194667Y0045950D01*
X0194916Y0045771D01*
X0195168Y0045598D01*
X0195425Y0045431D01*
X0195686Y0045271D01*
X0195951Y0045117D01*
X0196219Y0044970D01*
X0196491Y0044829D01*
X0196766Y0044695D01*
X0197045Y0044568D01*
X0197326Y0044447D01*
X0197611Y0044334D01*
X0197898Y0044228D01*
X0198187Y0044128D01*
X0198479Y0044036D01*
X0198773Y0043951D01*
X0199069Y0043873D01*
X0199367Y0043802D01*
X0199667Y0043739D01*
X0199968Y0043683D01*
X0200270Y0043635D01*
X0200573Y0043594D01*
X0200877Y0043560D01*
X0201182Y0043534D01*
X0201488Y0043515D01*
X0201794Y0043504D01*
X0202100Y0043500D01*
X0202406Y0043504D01*
X0202712Y0043515D01*
X0203018Y0043534D01*
X0203323Y0043560D01*
X0203627Y0043594D01*
X0203930Y0043635D01*
X0204232Y0043683D01*
X0204533Y0043739D01*
X0204833Y0043802D01*
X0205131Y0043873D01*
X0205427Y0043951D01*
X0205721Y0044036D01*
X0206013Y0044128D01*
X0206302Y0044228D01*
X0206589Y0044334D01*
X0206874Y0044447D01*
X0207155Y0044568D01*
X0207434Y0044695D01*
X0207709Y0044829D01*
X0207981Y0044970D01*
X0208249Y0045117D01*
X0208514Y0045271D01*
X0208775Y0045431D01*
X0209032Y0045598D01*
X0209284Y0045771D01*
X0209533Y0045950D01*
X0209776Y0046135D01*
X0210016Y0046326D01*
X0210250Y0046522D01*
X0210480Y0046725D01*
X0210704Y0046933D01*
X0210924Y0047146D01*
X0211138Y0047365D01*
X0211347Y0047589D01*
X0211550Y0047818D01*
X0211748Y0048052D01*
X0211939Y0048290D01*
X0212125Y0048534D01*
X0212305Y0048781D01*
X0212479Y0049034D01*
X0212646Y0049290D01*
X0212807Y0049550D01*
X0212962Y0049814D01*
X0213110Y0050082D01*
X0213252Y0050353D01*
X0213387Y0050628D01*
X0213515Y0050906D01*
X0213636Y0051187D01*
X0213751Y0051471D01*
X0213858Y0051758D01*
X0213959Y0052047D01*
X0214052Y0052339D01*
X0214138Y0052633D01*
X0214217Y0052928D01*
X0214288Y0053226D01*
X0214353Y0053525D01*
X0214410Y0053826D01*
X0214459Y0054128D01*
X0214501Y0054431D01*
X0214536Y0054736D01*
X0214563Y0055040D01*
X0214583Y0055346D01*
X0214595Y0055652D01*
X0214600Y0055958D01*
X0214597Y0056264D01*
X0214587Y0056570D01*
X0214569Y0056876D01*
X0214544Y0057181D01*
X0214511Y0057485D01*
X0214471Y0057789D01*
X0214424Y0058091D01*
X0214369Y0058392D01*
X0214307Y0058692D01*
X0214237Y0058990D01*
X0214160Y0059286D01*
X0214076Y0059581D01*
X0213985Y0059873D01*
X0213886Y0060163D01*
X0213781Y0060450D01*
X0213669Y0060735D01*
X0213549Y0061017D01*
X0213423Y0061296D01*
X0213290Y0061571D01*
X0213150Y0061844D01*
X0213004Y0062113D01*
X0212851Y0062378D01*
X0212691Y0062639D01*
X0212525Y0062896D01*
X0212353Y0063150D01*
X0212175Y0063399D01*
X0211991Y0063643D01*
X0211801Y0063883D01*
X0211605Y0064118D01*
X0211403Y0064349D01*
X0211196Y0064574D01*
X0210983Y0064794D01*
X0210765Y0065009D01*
X0210542Y0065218D01*
X0210314Y0065422D01*
X0210081Y0065621D01*
X0209843Y0065813D01*
X0209600Y0066000D01*
X0159850Y0040300D02*
X0159850Y0037800D01*
X0159850Y0039050D02*
X0155350Y0039050D01*
X0156350Y0037800D01*
X0157975Y0035475D02*
X0157600Y0034850D01*
X0157225Y0034225D01*
X0159101Y0033850D02*
X0159142Y0033923D01*
X0159181Y0033997D01*
X0159216Y0034074D01*
X0159248Y0034151D01*
X0159277Y0034230D01*
X0159303Y0034310D01*
X0159325Y0034391D01*
X0159343Y0034473D01*
X0159358Y0034556D01*
X0159370Y0034639D01*
X0159378Y0034723D01*
X0159382Y0034807D01*
X0159383Y0034891D01*
X0159380Y0034975D01*
X0159374Y0035059D01*
X0159364Y0035142D01*
X0159351Y0035225D01*
X0159850Y0034850D02*
X0155350Y0034850D01*
X0155850Y0034475D02*
X0155862Y0034423D01*
X0155877Y0034372D01*
X0155895Y0034322D01*
X0155917Y0034274D01*
X0155943Y0034227D01*
X0155972Y0034182D01*
X0156004Y0034140D01*
X0156039Y0034100D01*
X0156076Y0034062D01*
X0156116Y0034027D01*
X0156159Y0033995D01*
X0156204Y0033967D01*
X0156250Y0033941D01*
X0156299Y0033919D01*
X0156348Y0033900D01*
X0156399Y0033885D01*
X0156451Y0033874D01*
X0156504Y0033866D01*
X0156557Y0033863D01*
X0156610Y0033862D01*
X0156663Y0033866D01*
X0156716Y0033874D01*
X0156768Y0033885D01*
X0156819Y0033900D01*
X0156869Y0033918D01*
X0156917Y0033940D01*
X0156964Y0033965D01*
X0157009Y0033994D01*
X0157051Y0034026D01*
X0157092Y0034060D01*
X0157130Y0034098D01*
X0157165Y0034138D01*
X0157197Y0034180D01*
X0157226Y0034225D01*
X0155849Y0034475D02*
X0155836Y0034558D01*
X0155826Y0034641D01*
X0155820Y0034725D01*
X0155817Y0034809D01*
X0155818Y0034893D01*
X0155822Y0034977D01*
X0155830Y0035061D01*
X0155842Y0035144D01*
X0155857Y0035227D01*
X0155875Y0035309D01*
X0155897Y0035390D01*
X0155923Y0035470D01*
X0155952Y0035549D01*
X0155984Y0035626D01*
X0156019Y0035703D01*
X0156058Y0035777D01*
X0156099Y0035850D01*
X0157974Y0035475D02*
X0158003Y0035520D01*
X0158035Y0035562D01*
X0158070Y0035602D01*
X0158108Y0035640D01*
X0158149Y0035674D01*
X0158191Y0035706D01*
X0158236Y0035735D01*
X0158283Y0035760D01*
X0158331Y0035782D01*
X0158381Y0035800D01*
X0158432Y0035815D01*
X0158484Y0035826D01*
X0158537Y0035834D01*
X0158590Y0035838D01*
X0158643Y0035837D01*
X0158696Y0035834D01*
X0158749Y0035826D01*
X0158801Y0035815D01*
X0158852Y0035800D01*
X0158901Y0035781D01*
X0158950Y0035759D01*
X0158996Y0035733D01*
X0159041Y0035705D01*
X0159084Y0035673D01*
X0159124Y0035638D01*
X0159161Y0035600D01*
X0159196Y0035560D01*
X0159228Y0035518D01*
X0159257Y0035473D01*
X0159283Y0035426D01*
X0159305Y0035378D01*
X0159323Y0035328D01*
X0159338Y0035277D01*
X0159350Y0035225D01*
X0158600Y0031750D02*
X0155350Y0031750D01*
X0155350Y0029250D02*
X0158600Y0029250D01*
X0158669Y0029252D01*
X0158738Y0029258D01*
X0158806Y0029267D01*
X0158873Y0029280D01*
X0158940Y0029297D01*
X0159006Y0029318D01*
X0159070Y0029342D01*
X0159133Y0029370D01*
X0159195Y0029401D01*
X0159255Y0029435D01*
X0159312Y0029473D01*
X0159368Y0029514D01*
X0159421Y0029557D01*
X0159472Y0029604D01*
X0159520Y0029653D01*
X0159565Y0029705D01*
X0159607Y0029760D01*
X0159646Y0029816D01*
X0159683Y0029875D01*
X0159715Y0029936D01*
X0159745Y0029998D01*
X0159771Y0030062D01*
X0159793Y0030127D01*
X0159812Y0030193D01*
X0159827Y0030260D01*
X0159838Y0030328D01*
X0159846Y0030397D01*
X0159850Y0030466D01*
X0159850Y0030534D01*
X0159846Y0030603D01*
X0159838Y0030672D01*
X0159827Y0030740D01*
X0159812Y0030807D01*
X0159793Y0030873D01*
X0159771Y0030938D01*
X0159745Y0031002D01*
X0159715Y0031064D01*
X0159683Y0031125D01*
X0159646Y0031184D01*
X0159607Y0031240D01*
X0159565Y0031295D01*
X0159520Y0031347D01*
X0159472Y0031396D01*
X0159421Y0031443D01*
X0159368Y0031486D01*
X0159312Y0031527D01*
X0159255Y0031565D01*
X0159195Y0031599D01*
X0159133Y0031630D01*
X0159070Y0031658D01*
X0159006Y0031682D01*
X0158940Y0031703D01*
X0158873Y0031720D01*
X0158806Y0031733D01*
X0158738Y0031742D01*
X0158669Y0031748D01*
X0158600Y0031750D01*
D12*
X0214800Y0053303D02*
X0219400Y0053303D01*
X0219400Y0055348D01*
X0219400Y0057203D02*
X0214800Y0057203D01*
X0214800Y0059248D01*
X0214800Y0061094D02*
X0214800Y0062372D01*
X0214800Y0061094D02*
X0219400Y0061094D01*
X0219400Y0062372D01*
X0219398Y0062441D01*
X0219393Y0062510D01*
X0219383Y0062579D01*
X0219370Y0062647D01*
X0219353Y0062714D01*
X0219333Y0062780D01*
X0219309Y0062845D01*
X0219282Y0062909D01*
X0219251Y0062971D01*
X0219217Y0063031D01*
X0219180Y0063089D01*
X0219139Y0063145D01*
X0219096Y0063199D01*
X0219050Y0063251D01*
X0219001Y0063300D01*
X0218949Y0063346D01*
X0218895Y0063389D01*
X0218839Y0063430D01*
X0218781Y0063467D01*
X0218721Y0063501D01*
X0218659Y0063532D01*
X0218595Y0063559D01*
X0218530Y0063583D01*
X0218464Y0063603D01*
X0218397Y0063620D01*
X0218329Y0063633D01*
X0218260Y0063643D01*
X0218191Y0063648D01*
X0218122Y0063650D01*
X0216078Y0063650D01*
X0216009Y0063648D01*
X0215940Y0063643D01*
X0215871Y0063633D01*
X0215803Y0063620D01*
X0215736Y0063603D01*
X0215670Y0063583D01*
X0215605Y0063559D01*
X0215541Y0063532D01*
X0215479Y0063501D01*
X0215419Y0063467D01*
X0215361Y0063430D01*
X0215305Y0063389D01*
X0215251Y0063346D01*
X0215199Y0063300D01*
X0215150Y0063251D01*
X0215104Y0063199D01*
X0215061Y0063145D01*
X0215020Y0063089D01*
X0214983Y0063031D01*
X0214949Y0062971D01*
X0214918Y0062909D01*
X0214891Y0062845D01*
X0214867Y0062780D01*
X0214847Y0062714D01*
X0214830Y0062647D01*
X0214817Y0062579D01*
X0214807Y0062510D01*
X0214802Y0062441D01*
X0214800Y0062372D01*
X0216844Y0058737D02*
X0216844Y0057203D01*
X0219400Y0057203D02*
X0219400Y0059248D01*
X0219400Y0065744D02*
X0219400Y0068300D01*
X0219400Y0065744D02*
X0216844Y0067917D01*
X0214800Y0067150D02*
X0214802Y0067076D01*
X0214807Y0067002D01*
X0214817Y0066928D01*
X0214830Y0066855D01*
X0214846Y0066782D01*
X0214867Y0066711D01*
X0214891Y0066641D01*
X0214918Y0066572D01*
X0214949Y0066504D01*
X0214983Y0066438D01*
X0215020Y0066374D01*
X0215061Y0066312D01*
X0215105Y0066251D01*
X0215151Y0066194D01*
X0215201Y0066138D01*
X0215253Y0066085D01*
X0215308Y0066035D01*
X0215365Y0065988D01*
X0215425Y0065944D01*
X0215487Y0065902D01*
X0215550Y0065864D01*
X0215616Y0065829D01*
X0215683Y0065798D01*
X0215752Y0065770D01*
X0215822Y0065745D01*
X0216844Y0067917D02*
X0216797Y0067964D01*
X0216747Y0068008D01*
X0216695Y0068050D01*
X0216641Y0068089D01*
X0216585Y0068124D01*
X0216527Y0068157D01*
X0216467Y0068187D01*
X0216406Y0068213D01*
X0216343Y0068236D01*
X0216279Y0068255D01*
X0216215Y0068271D01*
X0216149Y0068284D01*
X0216083Y0068293D01*
X0216017Y0068298D01*
X0215950Y0068300D01*
X0215883Y0068298D01*
X0215816Y0068292D01*
X0215750Y0068283D01*
X0215685Y0068269D01*
X0215620Y0068252D01*
X0215557Y0068231D01*
X0215495Y0068206D01*
X0215434Y0068178D01*
X0215375Y0068146D01*
X0215318Y0068111D01*
X0215263Y0068072D01*
X0215211Y0068031D01*
X0215161Y0067986D01*
X0215114Y0067939D01*
X0215069Y0067889D01*
X0215028Y0067837D01*
X0214989Y0067782D01*
X0214954Y0067725D01*
X0214922Y0067666D01*
X0214894Y0067605D01*
X0214869Y0067543D01*
X0214848Y0067480D01*
X0214831Y0067415D01*
X0214817Y0067350D01*
X0214808Y0067284D01*
X0214802Y0067217D01*
X0214800Y0067150D01*
X0179797Y0148700D02*
X0177241Y0148700D01*
X0178519Y0148700D02*
X0178519Y0153300D01*
X0177241Y0152278D01*
X0175147Y0152022D02*
X0175147Y0149978D01*
X0175145Y0149909D01*
X0175140Y0149840D01*
X0175130Y0149771D01*
X0175117Y0149703D01*
X0175100Y0149636D01*
X0175080Y0149570D01*
X0175056Y0149505D01*
X0175029Y0149441D01*
X0174998Y0149379D01*
X0174964Y0149319D01*
X0174927Y0149261D01*
X0174886Y0149205D01*
X0174843Y0149151D01*
X0174797Y0149099D01*
X0174748Y0149050D01*
X0174696Y0149004D01*
X0174642Y0148961D01*
X0174586Y0148920D01*
X0174528Y0148883D01*
X0174468Y0148849D01*
X0174406Y0148818D01*
X0174342Y0148791D01*
X0174277Y0148767D01*
X0174211Y0148747D01*
X0174144Y0148730D01*
X0174076Y0148717D01*
X0174007Y0148707D01*
X0173938Y0148702D01*
X0173869Y0148700D01*
X0172591Y0148700D01*
X0172591Y0153300D01*
X0173869Y0153300D01*
X0173938Y0153298D01*
X0174007Y0153293D01*
X0174076Y0153283D01*
X0174144Y0153270D01*
X0174211Y0153253D01*
X0174277Y0153233D01*
X0174342Y0153209D01*
X0174406Y0153182D01*
X0174468Y0153151D01*
X0174528Y0153117D01*
X0174586Y0153080D01*
X0174642Y0153039D01*
X0174696Y0152996D01*
X0174748Y0152950D01*
X0174797Y0152901D01*
X0174843Y0152849D01*
X0174886Y0152795D01*
X0174927Y0152739D01*
X0174964Y0152681D01*
X0174998Y0152621D01*
X0175029Y0152559D01*
X0175056Y0152495D01*
X0175080Y0152430D01*
X0175100Y0152364D01*
X0175117Y0152297D01*
X0175130Y0152229D01*
X0175140Y0152160D01*
X0175145Y0152091D01*
X0175147Y0152022D01*
X0170744Y0153300D02*
X0168700Y0153300D01*
X0168700Y0148700D01*
X0170744Y0148700D01*
X0170233Y0151256D02*
X0168700Y0151256D01*
X0166844Y0148700D02*
X0164800Y0148700D01*
X0164800Y0153300D01*
D13*
X0146100Y0140000D02*
X0146100Y0138500D01*
X0145600Y0138000D01*
X0145600Y0124000D01*
X0146100Y0123500D01*
X0146100Y0122000D01*
X0146098Y0121940D01*
X0146093Y0121879D01*
X0146084Y0121820D01*
X0146071Y0121761D01*
X0146055Y0121702D01*
X0146035Y0121645D01*
X0146012Y0121590D01*
X0145985Y0121535D01*
X0145956Y0121483D01*
X0145923Y0121432D01*
X0145887Y0121383D01*
X0145849Y0121337D01*
X0145807Y0121293D01*
X0145763Y0121251D01*
X0145717Y0121213D01*
X0145668Y0121177D01*
X0145617Y0121144D01*
X0145565Y0121115D01*
X0145510Y0121088D01*
X0145455Y0121065D01*
X0145398Y0121045D01*
X0145339Y0121029D01*
X0145280Y0121016D01*
X0145221Y0121007D01*
X0145160Y0121002D01*
X0145100Y0121000D01*
X0139100Y0121000D01*
X0139040Y0121002D01*
X0138979Y0121007D01*
X0138920Y0121016D01*
X0138861Y0121029D01*
X0138802Y0121045D01*
X0138745Y0121065D01*
X0138690Y0121088D01*
X0138635Y0121115D01*
X0138583Y0121144D01*
X0138532Y0121177D01*
X0138483Y0121213D01*
X0138437Y0121251D01*
X0138393Y0121293D01*
X0138351Y0121337D01*
X0138313Y0121383D01*
X0138277Y0121432D01*
X0138244Y0121483D01*
X0138215Y0121535D01*
X0138188Y0121590D01*
X0138165Y0121645D01*
X0138145Y0121702D01*
X0138129Y0121761D01*
X0138116Y0121820D01*
X0138107Y0121879D01*
X0138102Y0121940D01*
X0138100Y0122000D01*
X0138100Y0123500D01*
X0138600Y0124000D01*
X0138600Y0138000D01*
X0138100Y0138500D01*
X0138100Y0140000D01*
X0138102Y0140060D01*
X0138107Y0140121D01*
X0138116Y0140180D01*
X0138129Y0140239D01*
X0138145Y0140298D01*
X0138165Y0140355D01*
X0138188Y0140410D01*
X0138215Y0140465D01*
X0138244Y0140517D01*
X0138277Y0140568D01*
X0138313Y0140617D01*
X0138351Y0140663D01*
X0138393Y0140707D01*
X0138437Y0140749D01*
X0138483Y0140787D01*
X0138532Y0140823D01*
X0138583Y0140856D01*
X0138635Y0140885D01*
X0138690Y0140912D01*
X0138745Y0140935D01*
X0138802Y0140955D01*
X0138861Y0140971D01*
X0138920Y0140984D01*
X0138979Y0140993D01*
X0139040Y0140998D01*
X0139100Y0141000D01*
X0145100Y0141000D01*
X0145160Y0140998D01*
X0145221Y0140993D01*
X0145280Y0140984D01*
X0145339Y0140971D01*
X0145398Y0140955D01*
X0145455Y0140935D01*
X0145510Y0140912D01*
X0145565Y0140885D01*
X0145617Y0140856D01*
X0145668Y0140823D01*
X0145717Y0140787D01*
X0145763Y0140749D01*
X0145807Y0140707D01*
X0145849Y0140663D01*
X0145887Y0140617D01*
X0145923Y0140568D01*
X0145956Y0140517D01*
X0145985Y0140465D01*
X0146012Y0140410D01*
X0146035Y0140355D01*
X0146055Y0140298D01*
X0146071Y0140239D01*
X0146084Y0140180D01*
X0146093Y0140121D01*
X0146098Y0140060D01*
X0146100Y0140000D01*
X0117100Y0124000D02*
X0117100Y0118000D01*
X0117098Y0117940D01*
X0117093Y0117879D01*
X0117084Y0117820D01*
X0117071Y0117761D01*
X0117055Y0117702D01*
X0117035Y0117645D01*
X0117012Y0117590D01*
X0116985Y0117535D01*
X0116956Y0117483D01*
X0116923Y0117432D01*
X0116887Y0117383D01*
X0116849Y0117337D01*
X0116807Y0117293D01*
X0116763Y0117251D01*
X0116717Y0117213D01*
X0116668Y0117177D01*
X0116617Y0117144D01*
X0116565Y0117115D01*
X0116510Y0117088D01*
X0116455Y0117065D01*
X0116398Y0117045D01*
X0116339Y0117029D01*
X0116280Y0117016D01*
X0116221Y0117007D01*
X0116160Y0117002D01*
X0116100Y0117000D01*
X0114600Y0117000D01*
X0114100Y0117500D01*
X0100100Y0117500D01*
X0099600Y0117000D01*
X0098100Y0117000D01*
X0098040Y0117002D01*
X0097979Y0117007D01*
X0097920Y0117016D01*
X0097861Y0117029D01*
X0097802Y0117045D01*
X0097745Y0117065D01*
X0097690Y0117088D01*
X0097635Y0117115D01*
X0097583Y0117144D01*
X0097532Y0117177D01*
X0097483Y0117213D01*
X0097437Y0117251D01*
X0097393Y0117293D01*
X0097351Y0117337D01*
X0097313Y0117383D01*
X0097277Y0117432D01*
X0097244Y0117483D01*
X0097215Y0117535D01*
X0097188Y0117590D01*
X0097165Y0117645D01*
X0097145Y0117702D01*
X0097129Y0117761D01*
X0097116Y0117820D01*
X0097107Y0117879D01*
X0097102Y0117940D01*
X0097100Y0118000D01*
X0097100Y0124000D01*
X0097102Y0124060D01*
X0097107Y0124121D01*
X0097116Y0124180D01*
X0097129Y0124239D01*
X0097145Y0124298D01*
X0097165Y0124355D01*
X0097188Y0124410D01*
X0097215Y0124465D01*
X0097244Y0124517D01*
X0097277Y0124568D01*
X0097313Y0124617D01*
X0097351Y0124663D01*
X0097393Y0124707D01*
X0097437Y0124749D01*
X0097483Y0124787D01*
X0097532Y0124823D01*
X0097583Y0124856D01*
X0097635Y0124885D01*
X0097690Y0124912D01*
X0097745Y0124935D01*
X0097802Y0124955D01*
X0097861Y0124971D01*
X0097920Y0124984D01*
X0097979Y0124993D01*
X0098040Y0124998D01*
X0098100Y0125000D01*
X0099600Y0125000D01*
X0100100Y0124500D01*
X0114100Y0124500D01*
X0114600Y0125000D01*
X0116100Y0125000D01*
X0116160Y0124998D01*
X0116221Y0124993D01*
X0116280Y0124984D01*
X0116339Y0124971D01*
X0116398Y0124955D01*
X0116455Y0124935D01*
X0116510Y0124912D01*
X0116565Y0124885D01*
X0116617Y0124856D01*
X0116668Y0124823D01*
X0116717Y0124787D01*
X0116763Y0124749D01*
X0116807Y0124707D01*
X0116849Y0124663D01*
X0116887Y0124617D01*
X0116923Y0124568D01*
X0116956Y0124517D01*
X0116985Y0124465D01*
X0117012Y0124410D01*
X0117035Y0124355D01*
X0117055Y0124298D01*
X0117071Y0124239D01*
X0117084Y0124180D01*
X0117093Y0124121D01*
X0117098Y0124060D01*
X0117100Y0124000D01*
X0072100Y0124000D02*
X0072100Y0118000D01*
X0072098Y0117940D01*
X0072093Y0117879D01*
X0072084Y0117820D01*
X0072071Y0117761D01*
X0072055Y0117702D01*
X0072035Y0117645D01*
X0072012Y0117590D01*
X0071985Y0117535D01*
X0071956Y0117483D01*
X0071923Y0117432D01*
X0071887Y0117383D01*
X0071849Y0117337D01*
X0071807Y0117293D01*
X0071763Y0117251D01*
X0071717Y0117213D01*
X0071668Y0117177D01*
X0071617Y0117144D01*
X0071565Y0117115D01*
X0071510Y0117088D01*
X0071455Y0117065D01*
X0071398Y0117045D01*
X0071339Y0117029D01*
X0071280Y0117016D01*
X0071221Y0117007D01*
X0071160Y0117002D01*
X0071100Y0117000D01*
X0069600Y0117000D01*
X0069100Y0117500D01*
X0055100Y0117500D01*
X0054600Y0117000D01*
X0053100Y0117000D01*
X0053040Y0117002D01*
X0052979Y0117007D01*
X0052920Y0117016D01*
X0052861Y0117029D01*
X0052802Y0117045D01*
X0052745Y0117065D01*
X0052690Y0117088D01*
X0052635Y0117115D01*
X0052583Y0117144D01*
X0052532Y0117177D01*
X0052483Y0117213D01*
X0052437Y0117251D01*
X0052393Y0117293D01*
X0052351Y0117337D01*
X0052313Y0117383D01*
X0052277Y0117432D01*
X0052244Y0117483D01*
X0052215Y0117535D01*
X0052188Y0117590D01*
X0052165Y0117645D01*
X0052145Y0117702D01*
X0052129Y0117761D01*
X0052116Y0117820D01*
X0052107Y0117879D01*
X0052102Y0117940D01*
X0052100Y0118000D01*
X0052100Y0124000D01*
X0052102Y0124060D01*
X0052107Y0124121D01*
X0052116Y0124180D01*
X0052129Y0124239D01*
X0052145Y0124298D01*
X0052165Y0124355D01*
X0052188Y0124410D01*
X0052215Y0124465D01*
X0052244Y0124517D01*
X0052277Y0124568D01*
X0052313Y0124617D01*
X0052351Y0124663D01*
X0052393Y0124707D01*
X0052437Y0124749D01*
X0052483Y0124787D01*
X0052532Y0124823D01*
X0052583Y0124856D01*
X0052635Y0124885D01*
X0052690Y0124912D01*
X0052745Y0124935D01*
X0052802Y0124955D01*
X0052861Y0124971D01*
X0052920Y0124984D01*
X0052979Y0124993D01*
X0053040Y0124998D01*
X0053100Y0125000D01*
X0054600Y0125000D01*
X0055100Y0124500D01*
X0069100Y0124500D01*
X0069600Y0125000D01*
X0071100Y0125000D01*
X0071160Y0124998D01*
X0071221Y0124993D01*
X0071280Y0124984D01*
X0071339Y0124971D01*
X0071398Y0124955D01*
X0071455Y0124935D01*
X0071510Y0124912D01*
X0071565Y0124885D01*
X0071617Y0124856D01*
X0071668Y0124823D01*
X0071717Y0124787D01*
X0071763Y0124749D01*
X0071807Y0124707D01*
X0071849Y0124663D01*
X0071887Y0124617D01*
X0071923Y0124568D01*
X0071956Y0124517D01*
X0071985Y0124465D01*
X0072012Y0124410D01*
X0072035Y0124355D01*
X0072055Y0124298D01*
X0072071Y0124239D01*
X0072084Y0124180D01*
X0072093Y0124121D01*
X0072098Y0124060D01*
X0072100Y0124000D01*
X0036100Y0127000D02*
X0036100Y0128500D01*
X0035600Y0129000D01*
X0035600Y0143000D01*
X0036100Y0143500D01*
X0036100Y0145000D01*
X0036098Y0145060D01*
X0036093Y0145121D01*
X0036084Y0145180D01*
X0036071Y0145239D01*
X0036055Y0145298D01*
X0036035Y0145355D01*
X0036012Y0145410D01*
X0035985Y0145465D01*
X0035956Y0145517D01*
X0035923Y0145568D01*
X0035887Y0145617D01*
X0035849Y0145663D01*
X0035807Y0145707D01*
X0035763Y0145749D01*
X0035717Y0145787D01*
X0035668Y0145823D01*
X0035617Y0145856D01*
X0035565Y0145885D01*
X0035510Y0145912D01*
X0035455Y0145935D01*
X0035398Y0145955D01*
X0035339Y0145971D01*
X0035280Y0145984D01*
X0035221Y0145993D01*
X0035160Y0145998D01*
X0035100Y0146000D01*
X0029100Y0146000D01*
X0029040Y0145998D01*
X0028979Y0145993D01*
X0028920Y0145984D01*
X0028861Y0145971D01*
X0028802Y0145955D01*
X0028745Y0145935D01*
X0028690Y0145912D01*
X0028635Y0145885D01*
X0028583Y0145856D01*
X0028532Y0145823D01*
X0028483Y0145787D01*
X0028437Y0145749D01*
X0028393Y0145707D01*
X0028351Y0145663D01*
X0028313Y0145617D01*
X0028277Y0145568D01*
X0028244Y0145517D01*
X0028215Y0145465D01*
X0028188Y0145410D01*
X0028165Y0145355D01*
X0028145Y0145298D01*
X0028129Y0145239D01*
X0028116Y0145180D01*
X0028107Y0145121D01*
X0028102Y0145060D01*
X0028100Y0145000D01*
X0028100Y0143500D01*
X0028600Y0143000D01*
X0028600Y0129000D01*
X0028100Y0128500D01*
X0028100Y0127000D01*
X0028102Y0126940D01*
X0028107Y0126879D01*
X0028116Y0126820D01*
X0028129Y0126761D01*
X0028145Y0126702D01*
X0028165Y0126645D01*
X0028188Y0126590D01*
X0028215Y0126535D01*
X0028244Y0126483D01*
X0028277Y0126432D01*
X0028313Y0126383D01*
X0028351Y0126337D01*
X0028393Y0126293D01*
X0028437Y0126251D01*
X0028483Y0126213D01*
X0028532Y0126177D01*
X0028583Y0126144D01*
X0028635Y0126115D01*
X0028690Y0126088D01*
X0028745Y0126065D01*
X0028802Y0126045D01*
X0028861Y0126029D01*
X0028920Y0126016D01*
X0028979Y0126007D01*
X0029040Y0126002D01*
X0029100Y0126000D01*
X0035100Y0126000D01*
X0035160Y0126002D01*
X0035221Y0126007D01*
X0035280Y0126016D01*
X0035339Y0126029D01*
X0035398Y0126045D01*
X0035455Y0126065D01*
X0035510Y0126088D01*
X0035565Y0126115D01*
X0035617Y0126144D01*
X0035668Y0126177D01*
X0035717Y0126213D01*
X0035763Y0126251D01*
X0035807Y0126293D01*
X0035849Y0126337D01*
X0035887Y0126383D01*
X0035923Y0126432D01*
X0035956Y0126483D01*
X0035985Y0126535D01*
X0036012Y0126590D01*
X0036035Y0126645D01*
X0036055Y0126702D01*
X0036071Y0126761D01*
X0036084Y0126820D01*
X0036093Y0126879D01*
X0036098Y0126940D01*
X0036100Y0127000D01*
X0239600Y0096000D02*
X0239600Y0086000D01*
X0239600Y0076000D01*
X0239600Y0066000D01*
X0239600Y0056000D01*
X0239600Y0046000D01*
X0239600Y0036000D01*
X0239600Y0026000D01*
X0239600Y0016000D01*
X0249600Y0016000D01*
X0249600Y0026000D01*
X0249600Y0036000D01*
X0249600Y0046000D01*
X0249600Y0056000D01*
X0249600Y0066000D01*
X0249600Y0076000D01*
X0249600Y0086000D01*
X0249600Y0096000D01*
X0239600Y0096000D01*
X0239600Y0086000D02*
X0249600Y0086000D01*
X0249600Y0076000D02*
X0239600Y0076000D01*
X0239600Y0066000D02*
X0249600Y0066000D01*
X0249600Y0056000D02*
X0239600Y0056000D01*
X0239600Y0046000D02*
X0249600Y0046000D01*
X0249600Y0036000D02*
X0239600Y0036000D01*
X0239600Y0026000D02*
X0249600Y0026000D01*
D14*
X0252100Y0021000D02*
X0274600Y0021000D01*
X0274600Y0031000D02*
X0252100Y0031000D01*
X0252100Y0041000D02*
X0274600Y0041000D01*
X0274600Y0051000D02*
X0252100Y0051000D01*
X0252100Y0061000D02*
X0274600Y0061000D01*
X0274600Y0071000D02*
X0252100Y0071000D01*
X0252100Y0081000D02*
X0274600Y0081000D01*
X0274600Y0091000D02*
X0252100Y0091000D01*
D15*
X0250600Y0091000D03*
X0250600Y0081000D03*
X0250600Y0071000D03*
X0250600Y0061000D03*
X0250600Y0051000D03*
X0250600Y0041000D03*
X0250600Y0031000D03*
X0250600Y0021000D03*
D16*
X0237600Y0021000D03*
X0237600Y0031000D03*
X0237600Y0041000D03*
X0237600Y0051000D03*
X0237600Y0061000D03*
X0237600Y0071000D03*
X0237600Y0081000D03*
X0237600Y0091000D03*
D17*
X0117850Y0121000D03*
X0096350Y0121000D03*
X0072850Y0121000D03*
X0051350Y0121000D03*
D18*
X0032100Y0125250D03*
X0032100Y0146750D03*
X0142100Y0141750D03*
X0142100Y0120250D03*
D19*
X0195978Y0119252D02*
X0195978Y0115315D01*
X0195980Y0115191D01*
X0195986Y0115068D01*
X0195995Y0114944D01*
X0196009Y0114822D01*
X0196026Y0114699D01*
X0196048Y0114577D01*
X0196073Y0114456D01*
X0196102Y0114336D01*
X0196134Y0114217D01*
X0196171Y0114098D01*
X0196211Y0113981D01*
X0196254Y0113866D01*
X0196302Y0113751D01*
X0196353Y0113639D01*
X0196407Y0113528D01*
X0196465Y0113418D01*
X0196526Y0113311D01*
X0196591Y0113205D01*
X0196659Y0113102D01*
X0196730Y0113001D01*
X0196804Y0112902D01*
X0196881Y0112805D01*
X0196962Y0112711D01*
X0197045Y0112620D01*
X0197131Y0112531D01*
X0197220Y0112445D01*
X0197311Y0112362D01*
X0197405Y0112281D01*
X0197502Y0112204D01*
X0197601Y0112130D01*
X0197702Y0112059D01*
X0197805Y0111991D01*
X0197911Y0111926D01*
X0198018Y0111865D01*
X0198128Y0111807D01*
X0198239Y0111753D01*
X0198351Y0111702D01*
X0198466Y0111654D01*
X0198581Y0111611D01*
X0198698Y0111571D01*
X0198817Y0111534D01*
X0198936Y0111502D01*
X0199056Y0111473D01*
X0199177Y0111448D01*
X0199299Y0111426D01*
X0199422Y0111409D01*
X0199544Y0111395D01*
X0199668Y0111386D01*
X0199791Y0111380D01*
X0199915Y0111378D01*
X0239285Y0111378D01*
X0239409Y0111380D01*
X0239532Y0111386D01*
X0239656Y0111395D01*
X0239778Y0111409D01*
X0239901Y0111426D01*
X0240023Y0111448D01*
X0240144Y0111473D01*
X0240264Y0111502D01*
X0240383Y0111534D01*
X0240502Y0111571D01*
X0240619Y0111611D01*
X0240734Y0111654D01*
X0240849Y0111702D01*
X0240961Y0111753D01*
X0241072Y0111807D01*
X0241182Y0111865D01*
X0241289Y0111926D01*
X0241395Y0111991D01*
X0241498Y0112059D01*
X0241599Y0112130D01*
X0241698Y0112204D01*
X0241795Y0112281D01*
X0241889Y0112362D01*
X0241980Y0112445D01*
X0242069Y0112531D01*
X0242155Y0112620D01*
X0242238Y0112711D01*
X0242319Y0112805D01*
X0242396Y0112902D01*
X0242470Y0113001D01*
X0242541Y0113102D01*
X0242609Y0113205D01*
X0242674Y0113311D01*
X0242735Y0113418D01*
X0242793Y0113528D01*
X0242847Y0113639D01*
X0242898Y0113751D01*
X0242946Y0113866D01*
X0242989Y0113981D01*
X0243029Y0114098D01*
X0243066Y0114217D01*
X0243098Y0114336D01*
X0243127Y0114456D01*
X0243152Y0114577D01*
X0243174Y0114699D01*
X0243191Y0114822D01*
X0243205Y0114944D01*
X0243214Y0115068D01*
X0243220Y0115191D01*
X0243222Y0115315D01*
X0243222Y0119252D01*
X0243222Y0131063D02*
X0243222Y0138937D01*
X0243222Y0150748D02*
X0243222Y0154685D01*
X0243220Y0154809D01*
X0243214Y0154932D01*
X0243205Y0155056D01*
X0243191Y0155178D01*
X0243174Y0155301D01*
X0243152Y0155423D01*
X0243127Y0155544D01*
X0243098Y0155664D01*
X0243066Y0155783D01*
X0243029Y0155902D01*
X0242989Y0156019D01*
X0242946Y0156134D01*
X0242898Y0156249D01*
X0242847Y0156361D01*
X0242793Y0156472D01*
X0242735Y0156582D01*
X0242674Y0156689D01*
X0242609Y0156795D01*
X0242541Y0156898D01*
X0242470Y0156999D01*
X0242396Y0157098D01*
X0242319Y0157195D01*
X0242238Y0157289D01*
X0242155Y0157380D01*
X0242069Y0157469D01*
X0241980Y0157555D01*
X0241889Y0157638D01*
X0241795Y0157719D01*
X0241698Y0157796D01*
X0241599Y0157870D01*
X0241498Y0157941D01*
X0241395Y0158009D01*
X0241289Y0158074D01*
X0241182Y0158135D01*
X0241072Y0158193D01*
X0240961Y0158247D01*
X0240849Y0158298D01*
X0240734Y0158346D01*
X0240619Y0158389D01*
X0240502Y0158429D01*
X0240383Y0158466D01*
X0240264Y0158498D01*
X0240144Y0158527D01*
X0240023Y0158552D01*
X0239901Y0158574D01*
X0239778Y0158591D01*
X0239656Y0158605D01*
X0239532Y0158614D01*
X0239409Y0158620D01*
X0239285Y0158622D01*
X0199915Y0158622D01*
X0199791Y0158620D01*
X0199668Y0158614D01*
X0199544Y0158605D01*
X0199422Y0158591D01*
X0199299Y0158574D01*
X0199177Y0158552D01*
X0199056Y0158527D01*
X0198936Y0158498D01*
X0198817Y0158466D01*
X0198698Y0158429D01*
X0198581Y0158389D01*
X0198466Y0158346D01*
X0198351Y0158298D01*
X0198239Y0158247D01*
X0198128Y0158193D01*
X0198018Y0158135D01*
X0197911Y0158074D01*
X0197805Y0158009D01*
X0197702Y0157941D01*
X0197601Y0157870D01*
X0197502Y0157796D01*
X0197405Y0157719D01*
X0197311Y0157638D01*
X0197220Y0157555D01*
X0197131Y0157469D01*
X0197045Y0157380D01*
X0196962Y0157289D01*
X0196881Y0157195D01*
X0196804Y0157098D01*
X0196730Y0156999D01*
X0196659Y0156898D01*
X0196591Y0156795D01*
X0196526Y0156689D01*
X0196465Y0156582D01*
X0196407Y0156472D01*
X0196353Y0156361D01*
X0196302Y0156249D01*
X0196254Y0156134D01*
X0196211Y0156019D01*
X0196171Y0155902D01*
X0196134Y0155783D01*
X0196102Y0155664D01*
X0196073Y0155544D01*
X0196048Y0155423D01*
X0196026Y0155301D01*
X0196009Y0155178D01*
X0195995Y0155056D01*
X0195986Y0154932D01*
X0195980Y0154809D01*
X0195978Y0154685D01*
X0195978Y0150748D01*
X0195978Y0138937D02*
X0195978Y0131063D01*
X0205820Y0135000D02*
X0205824Y0135338D01*
X0205837Y0135676D01*
X0205857Y0136014D01*
X0205886Y0136351D01*
X0205924Y0136687D01*
X0205969Y0137022D01*
X0206023Y0137356D01*
X0206085Y0137688D01*
X0206155Y0138019D01*
X0206233Y0138348D01*
X0206319Y0138675D01*
X0206413Y0139000D01*
X0206516Y0139323D01*
X0206626Y0139642D01*
X0206743Y0139959D01*
X0206869Y0140273D01*
X0207002Y0140584D01*
X0207143Y0140892D01*
X0207291Y0141196D01*
X0207447Y0141496D01*
X0207610Y0141792D01*
X0207780Y0142084D01*
X0207958Y0142372D01*
X0208142Y0142656D01*
X0208334Y0142935D01*
X0208532Y0143209D01*
X0208737Y0143478D01*
X0208948Y0143742D01*
X0209166Y0144001D01*
X0209390Y0144254D01*
X0209620Y0144502D01*
X0209856Y0144744D01*
X0210098Y0144980D01*
X0210346Y0145210D01*
X0210599Y0145434D01*
X0210858Y0145652D01*
X0211122Y0145863D01*
X0211391Y0146068D01*
X0211665Y0146266D01*
X0211944Y0146458D01*
X0212228Y0146642D01*
X0212516Y0146820D01*
X0212808Y0146990D01*
X0213104Y0147153D01*
X0213404Y0147309D01*
X0213708Y0147457D01*
X0214016Y0147598D01*
X0214327Y0147731D01*
X0214641Y0147857D01*
X0214958Y0147974D01*
X0215277Y0148084D01*
X0215600Y0148187D01*
X0215925Y0148281D01*
X0216252Y0148367D01*
X0216581Y0148445D01*
X0216912Y0148515D01*
X0217244Y0148577D01*
X0217578Y0148631D01*
X0217913Y0148676D01*
X0218249Y0148714D01*
X0218586Y0148743D01*
X0218924Y0148763D01*
X0219262Y0148776D01*
X0219600Y0148780D01*
X0219938Y0148776D01*
X0220276Y0148763D01*
X0220614Y0148743D01*
X0220951Y0148714D01*
X0221287Y0148676D01*
X0221622Y0148631D01*
X0221956Y0148577D01*
X0222288Y0148515D01*
X0222619Y0148445D01*
X0222948Y0148367D01*
X0223275Y0148281D01*
X0223600Y0148187D01*
X0223923Y0148084D01*
X0224242Y0147974D01*
X0224559Y0147857D01*
X0224873Y0147731D01*
X0225184Y0147598D01*
X0225492Y0147457D01*
X0225796Y0147309D01*
X0226096Y0147153D01*
X0226392Y0146990D01*
X0226684Y0146820D01*
X0226972Y0146642D01*
X0227256Y0146458D01*
X0227535Y0146266D01*
X0227809Y0146068D01*
X0228078Y0145863D01*
X0228342Y0145652D01*
X0228601Y0145434D01*
X0228854Y0145210D01*
X0229102Y0144980D01*
X0229344Y0144744D01*
X0229580Y0144502D01*
X0229810Y0144254D01*
X0230034Y0144001D01*
X0230252Y0143742D01*
X0230463Y0143478D01*
X0230668Y0143209D01*
X0230866Y0142935D01*
X0231058Y0142656D01*
X0231242Y0142372D01*
X0231420Y0142084D01*
X0231590Y0141792D01*
X0231753Y0141496D01*
X0231909Y0141196D01*
X0232057Y0140892D01*
X0232198Y0140584D01*
X0232331Y0140273D01*
X0232457Y0139959D01*
X0232574Y0139642D01*
X0232684Y0139323D01*
X0232787Y0139000D01*
X0232881Y0138675D01*
X0232967Y0138348D01*
X0233045Y0138019D01*
X0233115Y0137688D01*
X0233177Y0137356D01*
X0233231Y0137022D01*
X0233276Y0136687D01*
X0233314Y0136351D01*
X0233343Y0136014D01*
X0233363Y0135676D01*
X0233376Y0135338D01*
X0233380Y0135000D01*
X0233376Y0134662D01*
X0233363Y0134324D01*
X0233343Y0133986D01*
X0233314Y0133649D01*
X0233276Y0133313D01*
X0233231Y0132978D01*
X0233177Y0132644D01*
X0233115Y0132312D01*
X0233045Y0131981D01*
X0232967Y0131652D01*
X0232881Y0131325D01*
X0232787Y0131000D01*
X0232684Y0130677D01*
X0232574Y0130358D01*
X0232457Y0130041D01*
X0232331Y0129727D01*
X0232198Y0129416D01*
X0232057Y0129108D01*
X0231909Y0128804D01*
X0231753Y0128504D01*
X0231590Y0128208D01*
X0231420Y0127916D01*
X0231242Y0127628D01*
X0231058Y0127344D01*
X0230866Y0127065D01*
X0230668Y0126791D01*
X0230463Y0126522D01*
X0230252Y0126258D01*
X0230034Y0125999D01*
X0229810Y0125746D01*
X0229580Y0125498D01*
X0229344Y0125256D01*
X0229102Y0125020D01*
X0228854Y0124790D01*
X0228601Y0124566D01*
X0228342Y0124348D01*
X0228078Y0124137D01*
X0227809Y0123932D01*
X0227535Y0123734D01*
X0227256Y0123542D01*
X0226972Y0123358D01*
X0226684Y0123180D01*
X0226392Y0123010D01*
X0226096Y0122847D01*
X0225796Y0122691D01*
X0225492Y0122543D01*
X0225184Y0122402D01*
X0224873Y0122269D01*
X0224559Y0122143D01*
X0224242Y0122026D01*
X0223923Y0121916D01*
X0223600Y0121813D01*
X0223275Y0121719D01*
X0222948Y0121633D01*
X0222619Y0121555D01*
X0222288Y0121485D01*
X0221956Y0121423D01*
X0221622Y0121369D01*
X0221287Y0121324D01*
X0220951Y0121286D01*
X0220614Y0121257D01*
X0220276Y0121237D01*
X0219938Y0121224D01*
X0219600Y0121220D01*
X0219262Y0121224D01*
X0218924Y0121237D01*
X0218586Y0121257D01*
X0218249Y0121286D01*
X0217913Y0121324D01*
X0217578Y0121369D01*
X0217244Y0121423D01*
X0216912Y0121485D01*
X0216581Y0121555D01*
X0216252Y0121633D01*
X0215925Y0121719D01*
X0215600Y0121813D01*
X0215277Y0121916D01*
X0214958Y0122026D01*
X0214641Y0122143D01*
X0214327Y0122269D01*
X0214016Y0122402D01*
X0213708Y0122543D01*
X0213404Y0122691D01*
X0213104Y0122847D01*
X0212808Y0123010D01*
X0212516Y0123180D01*
X0212228Y0123358D01*
X0211944Y0123542D01*
X0211665Y0123734D01*
X0211391Y0123932D01*
X0211122Y0124137D01*
X0210858Y0124348D01*
X0210599Y0124566D01*
X0210346Y0124790D01*
X0210098Y0125020D01*
X0209856Y0125256D01*
X0209620Y0125498D01*
X0209390Y0125746D01*
X0209166Y0125999D01*
X0208948Y0126258D01*
X0208737Y0126522D01*
X0208532Y0126791D01*
X0208334Y0127065D01*
X0208142Y0127344D01*
X0207958Y0127628D01*
X0207780Y0127916D01*
X0207610Y0128208D01*
X0207447Y0128504D01*
X0207291Y0128804D01*
X0207143Y0129108D01*
X0207002Y0129416D01*
X0206869Y0129727D01*
X0206743Y0130041D01*
X0206626Y0130358D01*
X0206516Y0130677D01*
X0206413Y0131000D01*
X0206319Y0131325D01*
X0206233Y0131652D01*
X0206155Y0131981D01*
X0206085Y0132312D01*
X0206023Y0132644D01*
X0205969Y0132978D01*
X0205924Y0133313D01*
X0205886Y0133649D01*
X0205857Y0133986D01*
X0205837Y0134324D01*
X0205824Y0134662D01*
X0205820Y0135000D01*
D20*
X0200702Y0117283D02*
X0200704Y0117352D01*
X0200710Y0117420D01*
X0200720Y0117488D01*
X0200734Y0117555D01*
X0200752Y0117622D01*
X0200773Y0117687D01*
X0200799Y0117751D01*
X0200828Y0117813D01*
X0200860Y0117873D01*
X0200896Y0117932D01*
X0200936Y0117988D01*
X0200978Y0118042D01*
X0201024Y0118093D01*
X0201073Y0118142D01*
X0201124Y0118188D01*
X0201178Y0118230D01*
X0201234Y0118270D01*
X0201292Y0118306D01*
X0201353Y0118338D01*
X0201415Y0118367D01*
X0201479Y0118393D01*
X0201544Y0118414D01*
X0201611Y0118432D01*
X0201678Y0118446D01*
X0201746Y0118456D01*
X0201814Y0118462D01*
X0201883Y0118464D01*
X0201952Y0118462D01*
X0202020Y0118456D01*
X0202088Y0118446D01*
X0202155Y0118432D01*
X0202222Y0118414D01*
X0202287Y0118393D01*
X0202351Y0118367D01*
X0202413Y0118338D01*
X0202473Y0118306D01*
X0202532Y0118270D01*
X0202588Y0118230D01*
X0202642Y0118188D01*
X0202693Y0118142D01*
X0202742Y0118093D01*
X0202788Y0118042D01*
X0202830Y0117988D01*
X0202870Y0117932D01*
X0202906Y0117873D01*
X0202938Y0117813D01*
X0202967Y0117751D01*
X0202993Y0117687D01*
X0203014Y0117622D01*
X0203032Y0117555D01*
X0203046Y0117488D01*
X0203056Y0117420D01*
X0203062Y0117352D01*
X0203064Y0117283D01*
X0203062Y0117214D01*
X0203056Y0117146D01*
X0203046Y0117078D01*
X0203032Y0117011D01*
X0203014Y0116944D01*
X0202993Y0116879D01*
X0202967Y0116815D01*
X0202938Y0116753D01*
X0202906Y0116692D01*
X0202870Y0116634D01*
X0202830Y0116578D01*
X0202788Y0116524D01*
X0202742Y0116473D01*
X0202693Y0116424D01*
X0202642Y0116378D01*
X0202588Y0116336D01*
X0202532Y0116296D01*
X0202474Y0116260D01*
X0202413Y0116228D01*
X0202351Y0116199D01*
X0202287Y0116173D01*
X0202222Y0116152D01*
X0202155Y0116134D01*
X0202088Y0116120D01*
X0202020Y0116110D01*
X0201952Y0116104D01*
X0201883Y0116102D01*
X0201814Y0116104D01*
X0201746Y0116110D01*
X0201678Y0116120D01*
X0201611Y0116134D01*
X0201544Y0116152D01*
X0201479Y0116173D01*
X0201415Y0116199D01*
X0201353Y0116228D01*
X0201292Y0116260D01*
X0201234Y0116296D01*
X0201178Y0116336D01*
X0201124Y0116378D01*
X0201073Y0116424D01*
X0201024Y0116473D01*
X0200978Y0116524D01*
X0200936Y0116578D01*
X0200896Y0116634D01*
X0200860Y0116692D01*
X0200828Y0116753D01*
X0200799Y0116815D01*
X0200773Y0116879D01*
X0200752Y0116944D01*
X0200734Y0117011D01*
X0200720Y0117078D01*
X0200710Y0117146D01*
X0200704Y0117214D01*
X0200702Y0117283D01*
X0236136Y0117283D02*
X0236138Y0117352D01*
X0236144Y0117420D01*
X0236154Y0117488D01*
X0236168Y0117555D01*
X0236186Y0117622D01*
X0236207Y0117687D01*
X0236233Y0117751D01*
X0236262Y0117813D01*
X0236294Y0117873D01*
X0236330Y0117932D01*
X0236370Y0117988D01*
X0236412Y0118042D01*
X0236458Y0118093D01*
X0236507Y0118142D01*
X0236558Y0118188D01*
X0236612Y0118230D01*
X0236668Y0118270D01*
X0236726Y0118306D01*
X0236787Y0118338D01*
X0236849Y0118367D01*
X0236913Y0118393D01*
X0236978Y0118414D01*
X0237045Y0118432D01*
X0237112Y0118446D01*
X0237180Y0118456D01*
X0237248Y0118462D01*
X0237317Y0118464D01*
X0237386Y0118462D01*
X0237454Y0118456D01*
X0237522Y0118446D01*
X0237589Y0118432D01*
X0237656Y0118414D01*
X0237721Y0118393D01*
X0237785Y0118367D01*
X0237847Y0118338D01*
X0237907Y0118306D01*
X0237966Y0118270D01*
X0238022Y0118230D01*
X0238076Y0118188D01*
X0238127Y0118142D01*
X0238176Y0118093D01*
X0238222Y0118042D01*
X0238264Y0117988D01*
X0238304Y0117932D01*
X0238340Y0117873D01*
X0238372Y0117813D01*
X0238401Y0117751D01*
X0238427Y0117687D01*
X0238448Y0117622D01*
X0238466Y0117555D01*
X0238480Y0117488D01*
X0238490Y0117420D01*
X0238496Y0117352D01*
X0238498Y0117283D01*
X0238496Y0117214D01*
X0238490Y0117146D01*
X0238480Y0117078D01*
X0238466Y0117011D01*
X0238448Y0116944D01*
X0238427Y0116879D01*
X0238401Y0116815D01*
X0238372Y0116753D01*
X0238340Y0116692D01*
X0238304Y0116634D01*
X0238264Y0116578D01*
X0238222Y0116524D01*
X0238176Y0116473D01*
X0238127Y0116424D01*
X0238076Y0116378D01*
X0238022Y0116336D01*
X0237966Y0116296D01*
X0237908Y0116260D01*
X0237847Y0116228D01*
X0237785Y0116199D01*
X0237721Y0116173D01*
X0237656Y0116152D01*
X0237589Y0116134D01*
X0237522Y0116120D01*
X0237454Y0116110D01*
X0237386Y0116104D01*
X0237317Y0116102D01*
X0237248Y0116104D01*
X0237180Y0116110D01*
X0237112Y0116120D01*
X0237045Y0116134D01*
X0236978Y0116152D01*
X0236913Y0116173D01*
X0236849Y0116199D01*
X0236787Y0116228D01*
X0236726Y0116260D01*
X0236668Y0116296D01*
X0236612Y0116336D01*
X0236558Y0116378D01*
X0236507Y0116424D01*
X0236458Y0116473D01*
X0236412Y0116524D01*
X0236370Y0116578D01*
X0236330Y0116634D01*
X0236294Y0116692D01*
X0236262Y0116753D01*
X0236233Y0116815D01*
X0236207Y0116879D01*
X0236186Y0116944D01*
X0236168Y0117011D01*
X0236154Y0117078D01*
X0236144Y0117146D01*
X0236138Y0117214D01*
X0236136Y0117283D01*
X0236136Y0152717D02*
X0236138Y0152786D01*
X0236144Y0152854D01*
X0236154Y0152922D01*
X0236168Y0152989D01*
X0236186Y0153056D01*
X0236207Y0153121D01*
X0236233Y0153185D01*
X0236262Y0153247D01*
X0236294Y0153307D01*
X0236330Y0153366D01*
X0236370Y0153422D01*
X0236412Y0153476D01*
X0236458Y0153527D01*
X0236507Y0153576D01*
X0236558Y0153622D01*
X0236612Y0153664D01*
X0236668Y0153704D01*
X0236726Y0153740D01*
X0236787Y0153772D01*
X0236849Y0153801D01*
X0236913Y0153827D01*
X0236978Y0153848D01*
X0237045Y0153866D01*
X0237112Y0153880D01*
X0237180Y0153890D01*
X0237248Y0153896D01*
X0237317Y0153898D01*
X0237386Y0153896D01*
X0237454Y0153890D01*
X0237522Y0153880D01*
X0237589Y0153866D01*
X0237656Y0153848D01*
X0237721Y0153827D01*
X0237785Y0153801D01*
X0237847Y0153772D01*
X0237907Y0153740D01*
X0237966Y0153704D01*
X0238022Y0153664D01*
X0238076Y0153622D01*
X0238127Y0153576D01*
X0238176Y0153527D01*
X0238222Y0153476D01*
X0238264Y0153422D01*
X0238304Y0153366D01*
X0238340Y0153307D01*
X0238372Y0153247D01*
X0238401Y0153185D01*
X0238427Y0153121D01*
X0238448Y0153056D01*
X0238466Y0152989D01*
X0238480Y0152922D01*
X0238490Y0152854D01*
X0238496Y0152786D01*
X0238498Y0152717D01*
X0238496Y0152648D01*
X0238490Y0152580D01*
X0238480Y0152512D01*
X0238466Y0152445D01*
X0238448Y0152378D01*
X0238427Y0152313D01*
X0238401Y0152249D01*
X0238372Y0152187D01*
X0238340Y0152126D01*
X0238304Y0152068D01*
X0238264Y0152012D01*
X0238222Y0151958D01*
X0238176Y0151907D01*
X0238127Y0151858D01*
X0238076Y0151812D01*
X0238022Y0151770D01*
X0237966Y0151730D01*
X0237908Y0151694D01*
X0237847Y0151662D01*
X0237785Y0151633D01*
X0237721Y0151607D01*
X0237656Y0151586D01*
X0237589Y0151568D01*
X0237522Y0151554D01*
X0237454Y0151544D01*
X0237386Y0151538D01*
X0237317Y0151536D01*
X0237248Y0151538D01*
X0237180Y0151544D01*
X0237112Y0151554D01*
X0237045Y0151568D01*
X0236978Y0151586D01*
X0236913Y0151607D01*
X0236849Y0151633D01*
X0236787Y0151662D01*
X0236726Y0151694D01*
X0236668Y0151730D01*
X0236612Y0151770D01*
X0236558Y0151812D01*
X0236507Y0151858D01*
X0236458Y0151907D01*
X0236412Y0151958D01*
X0236370Y0152012D01*
X0236330Y0152068D01*
X0236294Y0152126D01*
X0236262Y0152187D01*
X0236233Y0152249D01*
X0236207Y0152313D01*
X0236186Y0152378D01*
X0236168Y0152445D01*
X0236154Y0152512D01*
X0236144Y0152580D01*
X0236138Y0152648D01*
X0236136Y0152717D01*
X0200702Y0152717D02*
X0200704Y0152786D01*
X0200710Y0152854D01*
X0200720Y0152922D01*
X0200734Y0152989D01*
X0200752Y0153056D01*
X0200773Y0153121D01*
X0200799Y0153185D01*
X0200828Y0153247D01*
X0200860Y0153307D01*
X0200896Y0153366D01*
X0200936Y0153422D01*
X0200978Y0153476D01*
X0201024Y0153527D01*
X0201073Y0153576D01*
X0201124Y0153622D01*
X0201178Y0153664D01*
X0201234Y0153704D01*
X0201292Y0153740D01*
X0201353Y0153772D01*
X0201415Y0153801D01*
X0201479Y0153827D01*
X0201544Y0153848D01*
X0201611Y0153866D01*
X0201678Y0153880D01*
X0201746Y0153890D01*
X0201814Y0153896D01*
X0201883Y0153898D01*
X0201952Y0153896D01*
X0202020Y0153890D01*
X0202088Y0153880D01*
X0202155Y0153866D01*
X0202222Y0153848D01*
X0202287Y0153827D01*
X0202351Y0153801D01*
X0202413Y0153772D01*
X0202473Y0153740D01*
X0202532Y0153704D01*
X0202588Y0153664D01*
X0202642Y0153622D01*
X0202693Y0153576D01*
X0202742Y0153527D01*
X0202788Y0153476D01*
X0202830Y0153422D01*
X0202870Y0153366D01*
X0202906Y0153307D01*
X0202938Y0153247D01*
X0202967Y0153185D01*
X0202993Y0153121D01*
X0203014Y0153056D01*
X0203032Y0152989D01*
X0203046Y0152922D01*
X0203056Y0152854D01*
X0203062Y0152786D01*
X0203064Y0152717D01*
X0203062Y0152648D01*
X0203056Y0152580D01*
X0203046Y0152512D01*
X0203032Y0152445D01*
X0203014Y0152378D01*
X0202993Y0152313D01*
X0202967Y0152249D01*
X0202938Y0152187D01*
X0202906Y0152126D01*
X0202870Y0152068D01*
X0202830Y0152012D01*
X0202788Y0151958D01*
X0202742Y0151907D01*
X0202693Y0151858D01*
X0202642Y0151812D01*
X0202588Y0151770D01*
X0202532Y0151730D01*
X0202474Y0151694D01*
X0202413Y0151662D01*
X0202351Y0151633D01*
X0202287Y0151607D01*
X0202222Y0151586D01*
X0202155Y0151568D01*
X0202088Y0151554D01*
X0202020Y0151544D01*
X0201952Y0151538D01*
X0201883Y0151536D01*
X0201814Y0151538D01*
X0201746Y0151544D01*
X0201678Y0151554D01*
X0201611Y0151568D01*
X0201544Y0151586D01*
X0201479Y0151607D01*
X0201415Y0151633D01*
X0201353Y0151662D01*
X0201292Y0151694D01*
X0201234Y0151730D01*
X0201178Y0151770D01*
X0201124Y0151812D01*
X0201073Y0151858D01*
X0201024Y0151907D01*
X0200978Y0151958D01*
X0200936Y0152012D01*
X0200896Y0152068D01*
X0200860Y0152126D01*
X0200828Y0152187D01*
X0200799Y0152249D01*
X0200773Y0152313D01*
X0200752Y0152378D01*
X0200734Y0152445D01*
X0200720Y0152512D01*
X0200710Y0152580D01*
X0200704Y0152648D01*
X0200702Y0152717D01*
D21*
X0153100Y0095000D02*
X0141100Y0101000D01*
X0153100Y0095000D02*
X0153100Y0027000D01*
X0141100Y0021000D01*
X0020600Y0021000D02*
X0009100Y0021000D01*
X0009100Y0045000D01*
X0001600Y0045000D01*
X0001600Y0077000D01*
X0009100Y0077000D01*
X0009100Y0101000D01*
X0020600Y0101000D01*
M02*
